<?xml version="1.0" encoding="UTF-8" standalone="no"?><!DOCTYPE svg PUBLIC "-//W3C//DTD SVG 1.1//EN" "http://www.w3.org/Graphics/SVG/1.1/DTD/svg11.dtd"><svg width="100%" height="100%" viewBox="0 0 2500 2500" version="1.1" xmlns="http://www.w3.org/2000/svg" xmlns:xlink="http://www.w3.org/1999/xlink" xml:space="preserve" xmlns:serif="http://www.serif.com/" style="fill-rule:evenodd;clip-rule:evenodd;stroke-linejoin:round;stroke-miterlimit:2;"><path d="M90.141,1119.8c-0.595,-7.396 0.339,-26.182 0.339,-32.904l0,-72.657c0,-69.872 -5.931,-140.038 -5.931,-209.075c0,-86.565 -11.695,-185.034 5.096,-268.992c2.517,-12.586 0.759,-25.924 -0.5,-39.265c-1.878,-19.91 -3.257,-39.817 0.5,-58.6c18.593,-92.966 32.272,-184.019 99.566,-251.315c8.882,-8.883 16.49,-23.531 25.727,-35.806c10.1,-13.421 21.713,-24.672 34.834,-31.233c15.293,-7.647 32.135,-11.056 49.749,-12.436c18.547,-1.454 38.167,-0.118 56.486,-3.781c59.431,-11.887 124.243,0.776 183.442,-9.091c116.533,-19.422 265.982,-28.82 383.859,-11.981c29.479,4.211 60.339,1.151 89.734,6.05c74.722,12.453 154.69,0.22 230.338,7.097c77.573,7.052 155.686,11.564 233.098,19.305c55.041,5.504 111.632,-4.311 166.796,-0.067c67.459,5.189 144.611,12.856 212.184,3.202c105.858,-15.122 227.981,-23.66 333.019,-2.653c21.235,4.247 45.459,18.526 62.394,31.227c11.659,8.743 24.349,13.494 34.71,23.856c27.875,27.875 42.646,73.444 47.981,110.79c10.074,70.52 6.081,142.021 14.905,212.619c4.623,36.983 4.706,76.517 4.706,113.862c0,79.039 10.03,160.681 1.279,239.446c-4.789,43.103 -4.397,87.237 -10.511,130.036c-2.698,18.891 2.699,38.939 0,57.829c-3.908,27.362 -6.365,61.203 -2.888,89.016c6.868,54.937 -0.495,112.154 7.337,166.978c24.048,168.347 19.611,343.902 19.611,514.797c0,78.447 7.934,158.256 1.368,237.05c-2.884,34.61 3.252,70.85 -3.498,104.599c-3.721,18.609 -3.499,39.921 -5.352,60.788c-2.465,27.774 -8.33,54.714 -23.324,77.204c-18.443,27.664 -48.021,62.486 -74.46,82.316c-20.847,15.635 -44.351,21.498 -68.778,23.813c-17.224,1.632 -34.921,1.143 -51.446,4.448c-61.594,12.321 -131.576,12.51 -194.854,12.51c-24.754,0 -53.28,-4.499 -77.557,-0.453c-52.717,8.785 -107.297,-1.209 -160.458,4.698c-74.783,8.308 -163.651,20.473 -238.57,5.487c-43.543,-8.71 -92.079,0.667 -136.076,-5.618c-42.052,-6.007 -86.767,2.919 -129.09,-1.314c-94.997,-9.5 -189.693,-15.707 -284.697,-25.207c-86.285,-8.628 -175.519,12.028 -262.105,12.028c-91.628,-0 -181.47,4.448 -272.835,4.448c-17.432,0 -41.877,4.509 -64.194,6.6c-19.865,1.861 -38.442,1.759 -52.134,-1.664c-46.134,-11.533 -76.862,-39.924 -114.229,-67.949c-9.781,-7.335 -22.963,-16.039 -30.392,-25.943c-51.435,-68.58 -79.943,-180.672 -65.525,-267.177c3.888,-23.324 2.512,-47.686 2.512,-71.625c0,-6.27 1.1,-22.872 1.245,-25.023c-7.929,-25.088 -7.176,-57.717 -7.176,-84.704c0,-47.957 2.966,-96.589 2.966,-143.832c-0,-103.576 11.112,-205.653 22.445,-307.655c4.612,-41.505 7.173,-99.965 -1.039,-141.027c-8.836,-44.182 5.284,-92.572 5.284,-137.024c0,-5.808 1.489,-11.271 4.109,-16.028Zm62.534,15.109l0.024,0.919c-0,40.237 -14.577,83.957 -6.579,123.95c9.403,47.014 7.207,113.941 1.926,161.463c-11.062,99.564 -22.038,199.192 -22.038,300.293c0,47.243 -2.965,95.875 -2.965,143.832c-0,20.743 -2.131,46.026 4.22,65.082c3.856,11.566 1.711,32.569 1.711,44.645c-0,27.608 1.064,55.686 -3.419,82.586c-11.669,70.01 11.47,160.712 53.098,216.216c3.944,5.258 11.866,8.715 17.059,12.61c29.986,22.489 53.375,47.351 90.397,56.606c10.398,2.599 25.433,0.58 40.83,-1.217c21.277,-2.484 43.047,-5.71 59.33,-5.71c91.365,0 181.207,-4.448 272.835,-4.448c88.768,0 180.279,-20.542 268.738,-11.697c95.004,9.5 189.701,15.707 284.698,25.208c43.24,4.324 88.921,-4.485 131.883,1.652c45.183,6.454 95.008,-2.701 139.725,6.243c68.512,13.705 149.745,1.224 218.132,-6.374c51.966,-5.774 105.329,4.389 156.861,-4.199c27.707,-4.618 60.265,-0.453 88.516,-0.453c59.022,-0 124.326,0.277 181.778,-11.215c15.538,-3.109 31.931,-3.669 48.239,-4.686c15.747,-0.982 31.712,-1.526 45.06,-11.537c21.079,-15.81 44.287,-43.908 58.992,-65.964c8.877,-13.316 10.928,-29.672 12.388,-46.116c2.072,-23.345 2.222,-47.151 6.385,-67.968c6.262,-31.31 -0.242,-64.954 2.434,-97.062c6.412,-76.954 -1.599,-154.899 -1.599,-231.514c0,-167.761 4.666,-340.109 -18.941,-505.369c-7.886,-55.206 -0.576,-112.817 -7.491,-168.136c-4.168,-33.339 -1.642,-73.916 3.043,-106.713c2.698,-18.891 -2.699,-38.938 -0,-57.829c6.016,-42.117 5.536,-85.555 10.248,-127.971c8.482,-76.344 -1.686,-155.475 -1.686,-232.084c-0,-34.631 0.095,-71.299 -4.191,-105.593c-8.777,-70.212 -4.732,-141.326 -14.751,-211.461c-3.476,-24.333 -10.962,-54.914 -29.125,-73.077c-8.054,-8.055 -18.505,-10.866 -27.568,-17.662c-9.788,-7.342 -23.196,-16.734 -35.47,-19.189c-97.942,-19.588 -211.808,-10.823 -310.516,3.278c-72.201,10.314 -154.646,2.816 -226.725,-2.729c-55.667,-4.282 -112.774,5.487 -168.316,-0.067c-77.214,-7.721 -155.127,-12.214 -232.501,-19.248c-77.269,-7.024 -158.938,4.99 -235.262,-7.731c-28.89,-4.815 -59.229,-1.673 -88.202,-5.812c-111.62,-15.946 -253.124,-6.648 -363.471,11.744c-58.512,9.752 -122.586,-3.046 -181.327,8.703c-17.993,3.598 -37.017,3.556 -55.515,4.354c-11.976,0.517 -23.74,0.999 -33.98,6.119c-6.509,3.255 -10.815,10.66 -15.622,17.59c-9.373,13.513 -18.219,27.567 -27.613,36.961c-57.749,57.75 -65.379,137.47 -81.335,217.249c-2.517,12.586 -0.759,25.924 0.5,39.265c1.878,19.909 3.257,39.817 -0.5,58.6c-15.974,79.872 -3.801,173.566 -3.801,255.918c-0,69.037 5.931,139.203 5.931,209.075l0,72.657c0,2.989 -0.26,10.767 -0.488,16.923c2.452,6.79 2.718,14.419 0.26,21.791c-1.224,3.674 -2.675,6.742 -4.244,9.299Zm-58.266,-32.375l-0.061,0.166l0.219,-0.523l-0.158,0.357Zm0.804,-1.81l-0.04,0.09l0.078,-0.163l-0.038,0.073Z" style="fill:#703d6f;"/><g id="Layer1"><path d="M941.607,247.627c0,74.696 -16.036,148.775 -20.694,223.306c-4.044,64.696 2.783,130.11 -0.033,194.879c-7.267,167.135 -12.039,334.266 -17.806,501.485c-2.757,79.956 1.482,160.177 -1.479,240.129c-9.647,260.477 -29.679,523.747 -29.679,782.669c-0,18.397 14.936,33.333 33.333,33.333c18.397,-0 33.333,-14.936 33.333,-33.333c0,-258.106 20.017,-520.545 29.634,-780.202c2.963,-80.008 -1.274,-160.286 1.485,-240.299c5.76,-167.019 10.524,-333.951 17.782,-500.887c2.798,-64.348 -4.051,-129.338 -0.033,-193.615c4.745,-75.911 20.824,-151.386 20.824,-227.465c-0,-18.397 -14.936,-33.333 -33.333,-33.333c-18.398,-0 -33.334,14.936 -33.334,33.333Z" style="fill:#595858;"/><path d="M1577.75,290.786c0.362,-38.527 16.84,-45.644 33.316,-39.569c16.48,-6.074 32.96,1.046 33.315,39.569l0.018,0.495l0,15.658c0,15.182 -2.41,29.082 -4.902,44.033c-5.205,31.231 -11.11,62.21 -16.311,93.416c-15.337,92.025 -16.757,183.138 -20.33,276.051c-6.645,172.77 -14.864,346.35 -8.892,519.515c6.141,178.074 20.779,355.11 20.779,533.474c0,114.342 6.624,226.491 14.743,340.151c2.821,39.484 11.388,82.804 5.681,122.749c-1.22,8.541 -8.032,50.325 -10.367,55.878c-9.666,22.988 -29.484,21.684 -36.705,20.457c-3.217,-0.547 -28.156,-5.218 -28.156,-36.566c-0,-5.609 1.388,-10.897 3.847,-15.536c1.785,-10.951 4.793,-29.518 5.385,-33.662c5.05,-35.35 -3.686,-73.627 -6.182,-108.569c-8.233,-115.248 -14.913,-228.963 -14.913,-344.902c0,-177.596 -14.624,-353.868 -20.739,-531.176c-6.028,-174.785 2.195,-349.989 8.901,-524.376c3.683,-95.744 5.384,-189.618 21.189,-284.448c5.201,-31.206 11.105,-62.185 16.311,-93.416c1.873,-11.242 3.994,-21.657 3.994,-33.073l0,-15.658l0.018,-0.495Z" style="fill:#595858;"/><path d="M2150.5,969.317c3.35,-1.145 6.944,-1.761 10.68,-1.761c18.397,0 33.334,14.936 33.334,33.333c-0,11.683 -4.532,25.422 -22.667,32.361c-3.755,1.436 -10.422,2.95 -18.994,3.021c-14.088,0.116 -39.919,-3.266 -44.645,-3.629c-62.124,-4.779 -124.036,-8.361 -186.282,-14.913c-145.796,-15.347 -292.657,-19.479 -438.736,-34.087c-180.137,-18.014 -359.628,-11.751 -540.201,-16.155c-166.517,-4.061 -334.256,8.283 -500.555,-0.032c-66.764,-3.338 -134.594,-4.407 -199.996,-4.407c-18.397,0 -33.334,-14.936 -33.334,-33.333c0,-18.397 14.937,-33.333 33.334,-33.333c66.491,-0 135.45,1.096 203.325,4.49c165.734,8.286 332.901,-4.08 498.852,-0.032c182.248,4.445 363.4,-1.714 545.208,16.466c146.194,14.62 293.171,18.763 439.082,34.122c61.622,6.487 122.915,10.012 184.417,14.743l37.178,3.146Zm-22.612,29.941c-0.029,0.54 -0.041,1.084 -0.041,1.631l0.041,-1.631Zm1.455,-8.263c-0.829,2.59 -1.302,5.271 -1.442,8.034c0.153,-2.783 0.648,-5.475 1.442,-8.034Zm0.209,-0.656l-0.198,0.621l0.36,-1.063l-0.162,0.442Z" style="fill:#595858;"/><path d="M2206.79,1636.9c2.036,-0.398 4.138,-0.601 6.286,-0.601c18.397,-0 33.334,14.936 33.334,33.333c-0,12.997 -5.313,28.373 -26.978,33.44c-3.677,0.861 -10.314,1.485 -18.679,0.525c-14.144,-1.625 -39.967,-7.979 -43.84,-8.839c-52.466,-11.659 -104.816,-23.472 -157.052,-37.402c-124.504,-33.202 -251.044,-47.807 -379.904,-47.807c-216.641,0 -433.349,-13.283 -650.049,-7.426c-100.944,2.728 -201.308,14.181 -302.202,17.784c-74.166,2.649 -149.68,7.914 -223.113,18.929c-59.912,8.987 -118.749,22.751 -178.221,33.902c-18.082,3.391 -35.515,-8.537 -38.905,-26.619c-3.39,-18.082 8.537,-35.515 26.619,-38.905c60.268,-11.301 119.903,-25.2 180.617,-34.307c75.907,-11.386 153.96,-16.886 230.624,-19.624c101.086,-3.61 201.643,-15.069 302.78,-17.803c217.3,-5.873 434.609,7.402 651.85,7.402c134.69,0 266.944,15.355 397.082,50.058c51.332,13.689 102.778,25.281 154.336,36.738c2.83,0.629 26.952,5.512 35.415,7.222Zm-23.399,17.586c-2.455,4.599 -3.648,9.659 -3.648,15.146c-0,-5.455 1.313,-10.605 3.648,-15.146Z" style="fill:#595858;"/></g><g id="Layer2"><path d="M454.889,731.436c-0.423,-3.747 -1.123,-7.557 -1.123,-10.796c0,-22.707 1.427,-46.371 3.051,-69.101c5.415,-75.811 7.954,-153.543 18.001,-228.898c1.007,-7.555 2.593,-39.266 6.023,-55.538c2.157,-10.232 5.902,-17.556 8.751,-21.371c11.543,-15.454 25.867,-17.027 39.187,-12.586c17.454,5.817 26.9,24.71 21.082,42.163c-0.949,2.849 -2.247,5.484 -3.835,7.868c-1.112,10.928 -4.333,42.326 -5.126,48.274c-9.869,74.017 -12.267,150.374 -17.586,224.838c-1.512,21.168 -2.881,43.204 -2.881,64.351c-0,10.978 1.663,25.623 -0.995,36.258c-0.689,2.756 -2.625,8.107 -2.625,8.107c-5.675,15.075 -21.317,23.935 -37.164,21.051c-15.848,-2.884 -27.366,-16.687 -27.366,-32.794l0,-8.897c0,-4.585 0.928,-8.954 2.606,-12.929Zm68.969,-333.814c-5.237,0.907 -10.768,0.567 -16.161,-1.231c5.504,1.835 10.899,2.284 16.161,1.231Z" style="fill:#f5f05d;"/><path d="M303.233,415.895c49.3,0 101.022,-25.169 148.586,-36.493c77.185,-18.378 151.887,-28.75 231.01,-28.75c18.397,0 33.334,-14.936 33.334,-33.333c-0,-18.397 -14.937,-33.334 -33.334,-33.334c-84.407,0 -164.111,10.958 -246.451,30.563c-42.773,10.184 -88.812,34.681 -133.145,34.681c-18.398,-0 -33.334,14.936 -33.334,33.333c0,18.397 14.936,33.333 33.334,33.333Z" style="fill:#f5f05d;"/><path d="M1250.74,315.229c16.592,-6.238 33.184,0.895 33.327,40.112l0.007,0.198l-0,6.264c-0,7.088 0.397,14.429 -0.074,21.493c-1.505,22.582 -6.718,45.507 -10.877,67.686c-13.595,72.507 -21.671,150.111 -21.671,223.691c0,24.632 -3.643,49.96 -6.096,74.492c-0.944,9.434 -1.799,18.728 -3.136,28.087c-0.543,3.806 -1.545,13.732 -1.851,15.099c-5.779,25.842 -28.884,26.253 -33.125,26.183c-1.911,-0.031 -32.838,-1.369 -32.838,-34.133l-0,-8.897c-0,-4.438 0.869,-8.674 2.454,-12.546c0.858,-6.79 1.474,-13.568 2.16,-20.427c2.235,-22.353 5.766,-45.414 5.766,-67.858c-0,-77.62 8.471,-159.489 22.812,-235.976c3.679,-19.621 8.551,-39.859 9.883,-59.835c0.374,-5.607 -0.074,-11.433 -0.074,-17.059l0,-6.264l0.007,-0.198c0.143,-39.22 16.735,-46.353 33.326,-40.112Z" style="fill:#f5f05d;"/><path d="M2044.74,369.655c-64.272,-42.848 -158.622,-18.132 -207.858,36.575c-23.596,26.218 -37.363,63.632 -50.53,95.61c-23.838,57.892 -39.93,141.009 -25.382,204.054c16.831,72.934 78.286,132.991 154.017,139.876c15.653,1.423 35.438,0.327 54.859,0.535c13.056,0.139 26.024,0.209 35.565,4.98c16.455,8.227 36.494,1.548 44.722,-14.907c8.227,-16.455 1.547,-36.494 -14.907,-44.722c-14.512,-7.255 -32.855,-10.706 -52.378,-11.665c-21.325,-1.046 -44.345,0.976 -61.825,-0.614c-47.278,-4.298 -84.586,-42.942 -95.093,-88.474c-11.686,-50.638 2.921,-117.18 22.067,-163.68c10.413,-25.289 19.778,-55.662 38.438,-76.395c28.932,-32.147 83.557,-50.881 121.325,-25.703c15.307,10.205 36.02,6.062 46.225,-9.245c10.204,-15.307 6.062,-36.02 -9.245,-46.225Z" style="fill:#f5f05d;"/><path d="M456.806,1112.83c1.649,24.737 6.89,48.633 8.938,73.208c7.822,93.875 -10.495,189.843 -10.495,283.412c0,18.397 14.936,33.333 33.333,33.333c18.398,0 33.334,-14.936 33.334,-33.333c-0,-95.392 18.239,-193.244 10.264,-288.948c-2.017,-24.207 -7.231,-47.74 -8.855,-72.107c-1.224,-18.356 -17.121,-32.266 -35.477,-31.042c-18.357,1.224 -32.266,17.12 -31.042,35.477Z" style="fill:#f5f05d;"/><path d="M644.01,1018.62c12.509,-6.36 28.208,-4.309 38.665,6.148c9.617,9.617 11.031,19.963 9.598,29.212c-1.083,6.988 -4.254,15.073 -12.911,21.773c-2.934,2.27 -9.605,6.166 -19.608,8.061c-12.462,2.361 -38.298,3.788 -43.651,3.788c-24.449,0 -49.331,6.122 -73.204,11.148c-73.931,15.564 -157.624,41.717 -221.177,84.085c-15.307,10.204 -36.02,6.062 -46.225,-9.246c-10.204,-15.307 -6.062,-36.02 9.246,-46.225c70.321,-46.88 162.617,-76.629 244.422,-93.851c28.32,-5.962 57.934,-12.577 86.938,-12.577c3.071,-0 20.352,-1.597 27.907,-2.316Zm-18.116,27.031c-1.216,8.605 0.976,17.593 9.64,26.257c-7.187,-7.187 -10.404,-16.851 -9.64,-26.257Z" style="fill:#f5f05d;"/><path d="M1085.44,1401.23c-0.105,-4.272 -0.094,-10.595 0.335,-13.598c1.063,-7.442 1.891,-14.717 2.965,-22.242c3.187,-22.308 5.172,-45.508 7.216,-67.995c5.494,-60.434 13.379,-122.233 25.772,-181.717c2.699,-12.958 10.157,-31.55 15.411,-50.187c1.542,-5.47 2.865,-10.939 3.518,-16.172c0.386,-3.09 1.353,-6.01 0.2,-8.317c-8.228,-16.455 -1.548,-36.494 14.907,-44.721c16.455,-8.228 36.494,-1.548 44.721,14.907c8.067,16.134 8.878,37.424 3.993,59.799c-4.598,21.059 -14.404,43.499 -17.485,58.288c-11.876,57.006 -19.379,116.239 -24.644,174.156c-2.146,23.61 -4.266,47.965 -7.612,71.387l-0.179,1.311c0.95,5.305 0.626,10.912 -1.196,16.379c-1.147,3.44 -1.255,5.276 -1.255,8.735c-0,35.457 -37.119,33.735 -38.228,33.571c-2.233,-0.33 -25.456,-3.562 -28.283,-29.459c-0.057,-0.523 -0.124,-2.088 -0.156,-4.118l-0,0.006l0,-0.013Z" style="fill:#f5f05d;"/><path d="M1149.82,1014.11c54.212,86.74 110.572,175.479 145.155,272.311c6.315,17.683 18.343,35.912 29.132,54.324c6.564,11.203 13.41,22.161 13.41,33.813c-0,18.397 14.936,33.333 33.333,33.333c18.397,0 33.333,-14.936 33.333,-33.333c0,-18.988 -6.51,-37.918 -16.278,-56.32c-9.866,-18.586 -23.823,-36.531 -30.147,-54.239c-36.19,-101.33 -94.675,-194.453 -151.405,-285.222c-9.75,-15.6 -30.332,-20.35 -45.933,-10.6c-15.601,9.751 -20.351,30.333 -10.6,45.933Z" style="fill:#f5f05d;"/><path d="M1353.69,1237.4c11.401,-3.476 24.303,-0.707 33.313,8.303c7.932,7.93 9.535,15.453 10.168,20.318c0.986,7.582 -0.506,14.19 -3.554,20.028c-2.956,5.663 -7.634,11.034 -15.045,14.716c-4.233,2.104 -24.405,3.261 -24.405,3.261c-0,-0 1.398,0.064 1.853,0.064c-13.554,0 -12.685,-0.855 -25.476,-1.529c-16.074,-0.846 -32.097,-1.264 -48.11,-3.148c-50.766,-5.972 -116.059,-3.916 -162.258,-27.015c-16.455,-8.227 -23.135,-28.266 -14.907,-44.721c8.227,-16.455 28.266,-23.135 44.721,-14.908c39.802,19.901 96.497,15.289 140.233,20.434c14.585,1.716 29.185,2.013 43.824,2.784c10.246,0.539 10.327,1.315 19.643,1.413Zm-23.305,36.114c0.318,5.726 2.575,12.427 9.48,19.331c-5.425,-5.424 -8.588,-12.259 -9.48,-19.331Z" style="fill:#f5f05d;"/><path d="M2050.07,1147.25c-12.216,-8.725 -29.456,-22.188 -46.516,-25.031c-35.053,-5.843 -73.655,5.804 -107.696,28.877c-47.59,32.256 -85.265,86.299 -92.356,132.386c-9.423,61.252 33.656,112.23 73.136,151.711c29.24,29.24 63.008,37.482 103.268,37.934c28.9,0.324 68.396,-8.577 91.548,-25.94c14.718,-11.038 17.705,-31.949 6.667,-46.667c-11.038,-14.718 -31.948,-17.705 -46.666,-6.667c-12.736,9.551 -34.904,12.79 -50.801,12.612c-21.877,-0.246 -40.987,-2.524 -56.875,-18.412c-14.574,-14.575 -30.81,-30.702 -42.336,-49.008c-8.59,-13.643 -14.642,-28.573 -12.049,-45.426c4.753,-30.892 31.967,-65.716 63.867,-87.337c18.957,-12.849 39.813,-21.557 59.332,-18.304c2.501,0.417 4.447,2.761 6.631,4.364c4.403,3.233 8.488,6.58 12.096,9.157c14.971,10.693 35.806,7.221 46.499,-7.75c10.694,-14.97 7.221,-35.805 -7.749,-46.499Z" style="fill:#f5f05d;"/><path d="M461.467,2075.61c-0.122,-5.326 -0.287,-12.913 -0.287,-14.521c0,-21.035 -3.794,-41.221 -5.781,-62.083c-6.618,-69.498 -0.15,-140.919 -0.15,-210.752c0,-18.397 14.936,-33.333 33.333,-33.333c18.398,-0 33.334,14.936 33.334,33.333c-0,67.739 -6.571,137.018 -0.15,204.432c2.188,22.976 6.081,45.235 6.081,68.403c-0,2.957 0.684,16.415 0.289,23.662c-0.321,5.901 -1.457,10.447 -2.346,12.97c-7.332,20.807 -23.625,23.507 -34.254,22.771c-6.225,-0.431 -19.608,-1.864 -28.32,-19.289c-4.138,-8.277 -4.504,-17.46 -1.749,-25.593Zm46.184,-19.257c6.363,3.093 11.79,8.228 15.194,15.037c-4.318,-8.636 -9.971,-12.897 -15.194,-15.037Z" style="fill:#f5f05d;"/><path d="M327.119,1902.91c32.994,-10.998 60.957,-30.845 91.851,-46.292c56.963,-28.482 112.579,-60.814 170.733,-86.883c14.14,-6.338 30.913,-16.085 48.158,-24.269c12.272,-5.825 24.633,-11.367 36.071,-11.367c18.398,0 33.334,-14.936 33.334,-33.333c-0,-18.397 -14.936,-33.334 -33.334,-33.334c-16.755,0 -35.026,4.947 -53.115,12.609c-20.765,8.795 -41.465,21.276 -58.385,28.861c-59.007,26.451 -115.476,59.187 -173.276,88.087c-28.064,14.032 -53.147,32.685 -83.119,42.676c-17.453,5.817 -26.9,24.71 -21.082,42.163c5.818,17.453 24.71,26.9 42.164,21.082Z" style="fill:#f5f05d;"/><path d="M1359.39,1793.43c21.706,9.123 47.95,22.083 69.807,38c22.639,16.486 40.44,36.452 48.467,57.783c8.739,23.222 3.487,56.772 -1.623,79.765c-7.111,31.998 -16.662,68.717 -37.574,95.052c-29.705,37.408 -69.438,45.391 -108.833,36.443c-33.173,-7.534 -66.068,-28.341 -89.122,-51.395c-60.977,-60.977 -64.502,-138.448 -35.944,-217.305c21.346,-58.944 71.144,-104.555 136.577,-95.831c18.236,2.432 31.067,19.211 28.636,37.447c-1.067,7.998 -4.893,14.957 -10.391,20.041Zm-85.137,45.183c-2.705,5.087 -5.038,10.436 -7.002,15.861c-19.302,53.298 -20.812,106.25 20.402,147.464c14.769,14.769 35.494,28.698 56.747,33.524c15.033,3.415 30.523,1.386 41.858,-12.889c14.814,-18.655 19.667,-45.39 24.704,-68.056c1.7,-7.651 3.87,-17.031 4.819,-26.444c0.547,-5.433 1.167,-10.92 -0.512,-15.38c-3.968,-10.546 -14.125,-19.221 -25.317,-27.372c-22.234,-16.191 -50.176,-28.361 -69.425,-35.645c-3.341,-0.328 -23.727,-2.396 -31.746,-4.556c-5.918,-1.594 -10.75,-3.958 -14.528,-6.507Z" style="fill:#f5f05d;"/><path d="M1745.16,1846.34c92.96,33.2 199.992,28.632 297.391,28.632c18.398,-0 33.334,-14.936 33.334,-33.333c-0,-18.398 -14.936,-33.334 -33.334,-33.334c-90.003,0 -189.067,5.931 -274.969,-24.748c-17.325,-6.188 -36.415,2.855 -42.602,20.18c-6.188,17.326 2.854,36.415 20.18,42.603Z" style="fill:#f5f05d;"/><path d="M1975.53,2164.12c-19.127,0.012 -38.28,1.48 -57.532,1.48c-49.433,-0 -107.352,0.897 -150.459,-27.841c-14.036,-9.357 -24.083,-23.294 -30.657,-39.724c-7.006,-17.511 -9.85,-38.155 -12.067,-54.779c-3.166,-23.746 -9.726,-47.016 -12.005,-70.937c-3.658,-38.41 1.333,-79.063 1.333,-117.336c-0,-18.397 14.936,-33.333 33.333,-33.333c18.397,-0 33.333,14.936 33.333,33.333c0,36.213 -5.094,74.672 -1.632,111.015c2.199,23.089 8.664,45.526 11.72,68.446c1.36,10.2 2.687,22.527 6.13,33.803c1.661,5.438 3.066,11.092 7.492,14.042c32.311,21.541 76.426,16.644 113.479,16.644c19.245,0 38.389,-1.466 57.508,-1.48c0.561,-0.329 1.136,-0.638 1.723,-0.931c16.455,-8.229 36.494,-1.55 44.722,14.904c7.964,15.925 3.974,27.436 -0.634,35.318c-4.264,7.294 -11.24,13.661 -21.881,16.62c-5.491,1.526 -20.764,0.906 -23.906,0.756Zm-14.106,-24.825l0.091,0.197l-0.275,-0.674l0.184,0.477Zm-0.73,-1.892l0.109,0.284l-0.191,-0.546l0.082,0.262Z" style="fill:#f5f05d;"/><path d="M1977.89,2010.5c-6.757,0.348 -17.658,0.884 -19.855,0.884c-41.8,0 -84.35,2.175 -125.901,-3.245c-20.269,-2.644 -40.76,-5.544 -60.355,-11.574c-1.788,-0.55 -10.822,-2.838 -15.757,-5.106c-5.975,-2.745 -10.184,-6.311 -12.751,-9.132c-8.791,-9.664 -10.233,-20.185 -8.36,-29.694c1.249,-6.339 4.741,-22.418 28.985,-27.864c11.628,-2.612 23.213,1.21 31.023,9.112c14.939,4.201 30.488,6.149 45.837,8.151c38.703,5.048 78.344,2.686 117.279,2.686c3.53,-0 16.469,-1.704 27.166,-1.179c9.592,0.471 18.154,2.642 24.112,5.603c14.959,7.436 22.091,19.56 22.091,34.84c-0,18.398 -14.936,33.334 -33.334,33.334c-7.583,-0 -14.578,-2.538 -20.18,-6.816Zm-13.023,-23.645l0.005,0.043l-0.02,-0.265l0.015,0.222Zm-0.091,-1.324l-0.039,-1.549c0,0.523 0.013,1.039 0.039,1.549Z" style="fill:#f5f05d;"/></g></svg>