<?xml version="1.0" encoding="UTF-8" standalone="no"?>
<!DOCTYPE svg PUBLIC "-//W3C//DTD SVG 1.1//EN" "http://www.w3.org/Graphics/SVG/1.1/DTD/svg11.dtd">
<svg width="100%" height="100%" viewBox="0 0 320 340" version="1.1" xmlns="http://www.w3.org/2000/svg" xmlns:xlink="http://www.w3.org/1999/xlink" xml:space="preserve" xmlns:serif="http://www.serif.com/" style="fill-rule:evenodd;clip-rule:evenodd;stroke-linejoin:round;stroke-miterlimit:2;">
    <g id="Layer3" transform="matrix(1,0,0,1,7,8)">
        <rect x="31" y="29.071" width="249" height="260.929" style="fill:white;"/>
    </g>
    <g id="Layer6" transform="matrix(1,0,0,1,7,8)">
        <path d="M19.825,56.419C18.942,55.93 18.113,55.442 17.575,55.065C15.317,53.481 13.962,51.548 13.348,49.703C11.891,45.334 12.203,36.465 14.1,28.977C15.509,23.413 17.86,18.687 20.142,16.405C22.638,13.909 28.734,11.678 32.055,10.018C37.224,7.433 41.737,6.067 47.358,3.256C48.937,2.466 51.69,1.83 55.04,1.7C59.805,1.514 66.39,2.109 69.573,2.109C78.904,2.109 89.006,2.933 96.77,6.815C97.378,7.119 98.143,6.819 98.936,6.745C100.413,6.607 101.939,6.364 103.428,6.195C107.555,5.727 111.466,5.978 114.564,7.527C118.476,9.483 123.451,10.81 127.976,11.941C130.36,12.537 131.91,11.104 133.638,10.254C136.786,8.705 140.051,7.447 143.95,7.447C147.151,7.447 151.107,8.456 153.994,9.813C154.486,9.797 156.384,9.734 157.428,9.689C159.902,9.584 162.28,9.825 164.362,10.612C165.042,10.576 166.76,10.47 167.201,10.323C172.48,8.563 180.926,9.582 186.655,9.582C188.659,9.582 191.288,10.12 193.973,10.745C195.168,11.023 197.191,11.336 197.895,11.44C203.562,8.606 210.373,5.253 217.205,4.014C222.995,2.963 228.804,3.335 234.246,5.983C234.479,5.992 235.306,6.015 235.794,5.977C236.994,5.884 238.24,5.698 239.466,5.553C242.747,5.165 245.927,5.162 248.546,5.97L253.046,5.587C256.248,5.31 259.231,5.661 261.539,6.815C266.618,9.354 268.764,12.385 273.283,14.644C273.976,14.99 274.768,15.25 275.623,15.463C277.399,14.505 279.537,14.277 281.553,14.949C281.553,14.949 283.688,15.661 284.756,16.017C286.496,16.597 288.188,17.581 289.792,18.765C290.858,19.551 291.824,20.534 292.856,21.05C294.844,22.044 297.238,24.393 299.007,27.522C301.072,31.176 302.34,35.771 302.34,38.078C302.34,38.414 302.218,41.076 301.822,43.074C301.438,45.013 300.679,46.578 300.054,47.434C299.132,48.698 298.058,49.51 296.952,50.009C297.156,50.865 297.288,51.837 297.309,52.887C297.344,54.646 297.002,56.918 297.002,58.007C297.002,66.943 294.305,75.499 291.635,83.511C291.13,85.025 290.315,86.535 289.4,88.038C289.072,88.578 288.557,89.521 288.295,90.008C289.334,92.394 291.538,93.695 293.281,95.415C295.896,97.994 298.173,100.873 299.464,104.746C301.007,109.375 299.429,117.423 298.04,121.589C297.415,123.466 297.76,125.687 297.799,127.849C297.848,130.552 297.738,133.211 297.134,135.627C296.444,138.384 294.845,140.767 293.285,143.235C294.007,144.015 294.679,144.821 294.994,145.411C296.428,148.096 296.637,150.899 295.142,153.888C294.202,155.769 292.729,159.112 291.996,162.332C291.749,163.419 291.372,164.455 291.635,165.244C292.085,166.594 293.398,167.632 294.352,168.902C295.932,171.005 297.222,173.266 297.845,175.761C298.713,179.231 298.072,182.848 296.808,186.358C296.482,187.261 295.996,188.688 295.699,189.568C296.161,189.99 296.742,190.528 297.102,190.887C298.161,191.945 299.074,193.121 299.769,194.511C301.605,198.184 301.346,201.972 299.496,205.832C298.662,207.573 297.407,209.374 296.266,211.198C296.047,211.549 295.767,212.09 295.561,212.504C296.175,213.435 296.998,214.787 297.329,215.778C298.314,218.733 298.157,221.779 297.471,224.856C297.296,225.642 297.089,226.432 296.908,227.223C296.803,227.685 296.69,228.546 296.665,228.737C298.275,233.568 299.493,237.567 299.493,243.06C299.493,244.368 298.938,248.208 298.783,249.247C299.626,251.439 299.827,253.945 299.58,256.573L299.196,260.503C299.741,262.018 300.747,263.755 301.243,265.244C302.448,268.859 302.086,272.715 300.692,276.517C299.544,279.648 297.472,282.725 296.617,285.29C293.191,295.568 288.226,306.544 279.858,314.912C275.15,319.62 271.206,323.87 262.811,323.87C262.888,323.87 263.152,323.861 263.152,323.861C263.152,323.861 258.552,323.998 257.409,323.679C255.774,323.222 254.674,322.398 253.949,321.673C253.212,320.936 252.434,319.871 251.969,318.348C251.613,317.18 251.731,312.733 251.755,311.986C250.822,312.096 249.792,312.135 248.692,312.079C245.769,311.929 241.807,311.059 240.036,311.059C233.445,311.059 227.428,309.621 221.976,306.996C221.323,306.98 219.486,306.919 218.524,306.794C217.269,306.631 216.091,306.312 215.018,305.829L211.916,305.423C210.568,305.908 208.771,306.429 208.063,306.629C201.754,312.876 194.173,319.286 183.847,321.867C179.184,323.033 176.614,321.831 175.066,320.774C174.721,320.539 174.396,320.285 174.092,320.01C172.37,321.131 170.596,322.143 169.413,322.447C165.722,323.399 162.788,322.327 160.711,320.25L160.396,319.915C160.104,319.944 159.84,319.956 159.609,319.956C157.927,319.956 156.695,319.638 155.761,319.218C154.987,319.574 154.361,319.73 153.962,319.81C151.598,320.283 150.044,320.112 148.881,319.839C148.041,319.643 147.027,319.121 146.183,318.615C144.749,319.146 142.135,320.088 140.73,320.441C136.361,321.54 132.811,320.464 130.462,318.115C130.277,317.93 130.098,317.734 129.928,317.526C128.049,318.89 126.18,320.249 124.129,321.128C119.299,323.198 116.47,321.61 114.75,320.268L114.717,320.24C113.383,320.878 112.106,321.214 111.011,321.308C108.313,321.54 106.016,320.715 104.128,318.827C103.938,318.637 103.756,318.437 103.585,318.224C101.15,318.976 99.233,318.698 97.769,318.219C97.14,318.013 96.549,317.749 95.996,317.424C95.675,317.317 95.357,317.185 95.045,317.029C93.92,316.466 92.025,315.089 90.575,313.925L89.051,313.913C87.523,314.684 85.011,315.754 83.359,315.839C81.389,315.94 79.756,315.427 78.461,314.597C76.816,314.802 75.174,315.036 73.545,315.275C71.844,316.217 70.078,316.943 68.197,317.319C65.92,317.774 64.148,317.495 62.722,316.89C61.308,317.08 59.815,317.247 58.372,317.34C57.88,317.631 57.434,317.852 57.068,317.976C53.355,319.232 50.287,318.336 47.951,316.028C47.049,315.902 45.712,315.699 44.776,315.485L44.597,315.517C41.453,315.981 38.591,315.212 36.156,312.777C35.413,312.034 34.484,310.67 33.878,308.78C31.819,308.733 27.036,308.283 24.056,305.303C18.846,300.093 15.626,289.989 13.348,283.155C12.66,281.093 12.534,278.758 12.753,276.342C12.868,275.074 13.332,273.765 13.108,272.645C12.479,269.5 10.386,266.796 9.433,263.938C8.676,261.667 8.569,259.147 8.785,256.566C8.89,255.3 9.445,254.01 9.077,252.906C7.661,248.658 6.204,242.836 7.493,237.683C8.882,232.126 9.07,226.118 10.856,220.76C12.166,216.83 14.829,213.035 16.329,208.927C15.917,208.108 14.687,205.637 14.162,204.32C12.993,201.387 12.716,198.456 13.703,195.493C14.114,194.261 14.771,193.004 15.527,191.756C15.816,191.278 16.262,190.863 16.389,190.352C17.162,187.26 16.667,183.999 16.135,180.737C15.37,176.042 14.386,171.342 14.386,166.904C14.386,164.519 14.799,162.006 15.247,159.455C15.622,157.326 16.2,155.153 15.678,153.065C14.96,150.193 13.193,147.637 11.738,145.015C10.23,142.299 8.918,139.55 8.204,136.694C7.037,132.024 7.525,127.49 8.866,123.053C10.255,118.458 12.787,114.013 13.898,109.569C14.428,107.451 13.373,106.049 12.628,104.506C11.862,102.92 11.092,101.298 10.501,99.525C9.727,97.203 9.673,94.655 10.161,92.102C10.547,90.078 11.361,88.047 11.763,86.437C12.381,83.965 11.377,81.482 11.01,79.017C10.496,75.554 10.456,72.138 11.568,68.803C13.063,64.32 16.534,60.29 19.825,56.419ZM151.648,313.998C151.203,312.775 150.945,311.781 150.945,311.781C150.945,311.781 151.126,312.972 151.477,313.674C151.532,313.784 151.589,313.892 151.648,313.998ZM251.756,311.986L251.755,311.986L251.753,312.1L251.756,311.986ZM53.632,16.885C48.212,19.554 43.799,20.916 38.763,23.434C37.294,24.169 35.178,24.966 33.147,25.844C32.224,26.242 31.25,26.51 30.748,27.011C29.762,27.998 29.25,30.256 28.641,32.66C27.711,36.332 27.003,40.535 27.27,43.357L29.68,44.615C31.576,45.601 33.274,46.726 34.439,47.89C36.235,49.686 37.186,51.739 37.434,53.868C37.684,56.02 37.317,58.473 35.359,61.084C33.548,63.499 31.244,65.896 29.144,68.393C27.766,70.031 26.423,71.674 25.798,73.546C25.081,75.697 26.045,77.908 26.408,80.159C26.942,83.465 27.138,86.786 26.315,90.075C25.984,91.399 25.069,94.536 24.875,95.195C25.641,97.311 26.761,99.139 27.535,101.092C28.939,104.637 29.65,108.408 28.45,113.207C27.607,116.58 26.1,119.974 24.694,123.402C23.403,126.547 21.914,129.688 22.757,133.056C23.297,135.218 24.551,137.213 25.719,139.273C27.567,142.531 29.339,145.863 30.23,149.427C30.972,152.396 30.961,155.452 30.578,158.506C30.217,161.381 29.386,164.241 29.386,166.904C29.386,170.573 30.307,174.443 30.94,178.324C31.806,183.638 32.2,188.955 30.942,193.99C30.575,195.454 29.913,196.899 29.102,198.289C28.889,198.654 28.632,198.998 28.406,199.341C28.976,200.462 30.081,202.694 30.569,204.075C31.576,206.929 31.83,209.901 30.781,213.048C29.331,217.396 26.463,221.375 25.087,225.503C23.419,230.505 23.342,236.133 22.045,241.321C21.459,243.663 22.664,246.231 23.307,248.162C24.06,250.419 24.166,252.934 23.948,255.518C23.842,256.784 23.292,258.08 23.663,259.194C24.802,262.612 27.065,265.942 27.817,269.703C28.193,271.586 28.137,273.695 27.898,275.84C27.799,276.723 27.678,278.342 27.655,278.651C29.164,283.244 30.728,289.979 33.922,293.873C34.406,293.879 34.999,293.899 35.646,293.948C36.92,292.271 38.532,291.34 40.039,290.905C42.35,290.236 45.419,290.15 48.542,293.273C49.648,294.379 50.336,295.746 50.605,297.176C53.007,297.132 55.04,297.992 56.727,299.679L56.801,299.758C58.136,298.792 59.376,298.288 60.281,298.062C63.774,297.189 66.106,298.139 67.821,299.356C68.256,299.665 68.662,300.012 69.034,300.401C69.416,300.1 69.805,299.802 70.21,299.53C72.705,297.855 75.376,296.458 78.422,295.849C81.807,295.171 84.052,296.138 85.664,297.312C85.935,297.509 86.195,297.721 86.44,297.95C89.672,296.237 93.294,295.103 97.023,295.848C99.925,296.429 101.991,297.981 103.472,300.186C103.646,300.445 103.819,300.765 103.986,301.124C108.399,299.193 111.199,300.453 112.767,301.437C113.516,301.906 114.182,302.477 114.747,303.159C117.862,302.287 120.557,302.833 122.777,304.611C124.962,303.046 127.103,301.337 129.516,300.264C129.582,300.235 132.167,299.301 133.722,299.013C134.964,298.783 136.008,298.822 136.657,298.911C139.981,299.369 141.626,301.358 142.473,303.052C142.605,303.315 142.728,303.597 142.838,303.897C143.447,303.719 144.006,303.575 144.455,303.492C147.191,302.985 149.621,303.347 151.575,304.324L151.784,304.437C153.361,303.677 155.309,302.817 156.305,302.667C158.678,302.31 160.56,302.757 162.014,303.676C162.281,303.584 162.519,303.51 162.71,303.458C163.89,303.14 164.909,303.062 165.654,303.09C167.504,303.158 168.917,303.762 169.989,304.541C170.72,304.005 171.312,303.586 171.546,303.453C171.561,303.444 175.301,301.649 177.148,301.591C180.811,301.478 183.157,303.315 184.441,305.851C190.034,303.366 194.29,299.196 198.077,295.409C199.152,294.334 200.613,293.401 202.348,292.727C203.695,292.204 205.432,292.013 206.433,291.512C207.677,290.89 209.705,290.372 212.093,290.393C215.049,290.419 218.753,291.243 220.61,291.925C221.057,291.937 222.445,291.979 223.195,292.034C224.974,292.166 226.639,292.568 228.087,293.292C231.679,295.088 235.662,296.059 240.036,296.059C241.634,296.059 246.766,296.687 249.013,296.973C250.999,295.053 254.663,291.558 255.61,290.947C260.403,287.852 264.044,290.626 265.267,291.849C267.197,293.779 268.531,297.01 268.442,301.099C268.411,302.526 268.159,304.152 267.859,305.735C268.315,305.263 268.775,304.782 269.252,304.305C275.926,297.631 279.654,288.745 282.387,280.546C283.065,278.512 284.329,276.18 285.533,273.762C285.988,272.848 286.434,271.917 286.739,270.977C286.852,270.63 287.123,270.318 287.013,269.987C286.49,268.419 285.401,266.574 284.878,265.005C284.118,262.726 284.074,260.073 284.389,257.356C284.492,256.467 284.63,254.896 284.673,254.396C284.042,252.901 283.7,251.058 283.75,249.03C283.802,246.957 284.493,244.466 284.493,243.06C284.493,239.317 283.488,236.637 282.387,233.333C281.385,230.327 281.539,227.262 282.214,224.197C282.391,223.395 282.6,222.593 282.784,221.794C282.86,221.466 282.942,220.942 282.992,220.6C282.389,219.711 281.329,218.06 280.963,216.963C279.45,212.424 280.707,207.898 283.294,203.656L285.286,200.4C284.957,200.097 284.632,199.787 284.393,199.545C283.353,198.491 282.437,197.303 281.726,195.881C280.286,193 280.112,189.897 280.894,186.625C281.286,184.987 281.962,183.27 282.599,181.538C282.871,180.799 283.476,180.131 283.293,179.399C282.969,178.101 281.794,177.189 280.959,176.122C279.422,174.157 278.118,172.129 277.404,169.987C276.616,167.622 276.439,164.662 276.902,161.492C277.416,157.977 278.725,154.102 280.003,150.995C279.194,150.155 278.393,149.243 278.04,148.606C276.528,145.884 276.314,143.058 277.811,140.062C278.632,138.421 279.645,136.896 280.656,135.396C281.406,134.284 282.264,133.259 282.582,131.989C283.117,129.847 282.754,127.37 282.743,124.985C282.729,122.123 282.978,119.343 283.81,116.846C284.214,115.634 284.732,113.868 285.03,112.067C285.185,111.132 285.466,110.188 285.234,109.489C284.306,106.708 281.895,105.326 280.019,103.479C277.4,100.901 275.128,98.034 273.846,94.187C272.645,90.584 273.085,87.332 274.393,84.273C275.222,82.335 276.791,80.607 277.404,78.767C279.583,72.231 282.002,65.298 282.002,58.007C282.002,57.199 282.185,54.72 282.27,53.629C281.145,51.583 278.801,47.379 278.229,45.051C277.24,41.022 278.791,38.183 280.284,36.69C280.556,36.418 280.854,36.041 281.083,35.596C281.162,35.443 281.384,35.306 281.319,35.112C281.007,34.177 279.98,32.448 279.817,32.178C279.326,31.906 278.787,31.543 278.238,31.137C277.551,30.966 276.846,30.827 276.147,30.691C272.597,30.004 269.129,29.338 266.575,28.061C262.214,25.88 260.063,22.983 255.354,20.505C254.738,20.549 252.944,20.683 251.912,20.791C249.052,21.091 246.287,21.022 244.07,20.282C243.416,20.064 242.624,20.297 241.8,20.384C240.464,20.526 239.092,20.73 237.76,20.861C234.041,21.226 230.547,20.901 227.785,19.52C224.486,17.87 220.881,18.368 217.391,19.358C212.545,20.733 207.868,23.223 203.888,25.214C201.826,26.245 199.125,26.682 196.08,26.374C192.974,26.059 189.157,24.582 186.655,24.582C182.326,24.582 175.933,23.223 171.945,24.553C170.522,25.027 166.812,25.689 163.96,25.632C162.011,25.593 160.324,25.191 159.151,24.687C158.727,24.7 156.763,24.759 155.706,24.806C152.779,24.936 150.006,24.58 147.714,23.434C146.662,22.908 145.163,22.447 143.95,22.447C142.76,22.447 141.796,22.975 140.829,23.437C139.407,24.116 138.015,24.853 136.561,25.451C132.987,26.921 129.135,27.693 124.338,26.493C118.764,25.1 112.674,23.352 107.856,20.943C107.267,20.649 106.522,20.96 105.746,21.034C104.266,21.174 102.733,21.419 101.235,21.587C97.113,22.049 93.191,21.796 90.062,20.231C84.232,17.316 76.579,17.109 69.573,17.109C66.11,17.109 54.687,16.904 53.632,16.885Z" style="fill:rgb(197,29,184);"/>
    </g>
    <g id="Layer4" transform="matrix(1,0,0,1,7,8)">
        <path d="M41.503,11.757L42.206,11.067C42.417,10.855 44.347,8.831 45.506,8.007C47.422,6.645 49.276,6.379 50.356,6.379C53.115,6.379 54.809,7.522 55.954,8.667C56.305,9.018 56.621,9.396 56.897,9.802C57.016,9.707 57.126,9.628 57.221,9.567C58.463,8.772 59.688,8.407 60.751,8.279C63.304,7.972 65.758,8.476 67.639,10.812C67.902,10.69 68.15,10.594 68.37,10.533L68.54,10.355C71.126,7.769 75.136,6.616 79.922,7.78C81.66,8.203 83.582,8.997 85.443,9.917C86.155,9.576 86.91,9.359 87.662,9.227C88.95,9 91.639,8.612 94.449,11.423C95.495,12.469 96.474,13.605 97.418,14.787C98.914,14.633 100.519,14.745 102.176,15.131C102.344,14.826 102.532,14.541 102.732,14.272C103.681,12.994 104.992,11.984 106.792,11.472C107.875,11.163 109.929,10.903 112.361,11.87C114.294,12.638 117.768,14.939 117.845,14.996C118.269,15.314 118.688,15.62 119.105,15.924C121.298,15.445 123.768,15.783 126.406,17.083C127.307,17.528 128.493,18.323 129.683,19.195C130.455,18.594 131.335,18.126 132.326,17.796C135.911,16.601 139.765,17.114 143.697,18.542C144.811,18.947 145.942,19.422 147.084,19.83C147.348,19.275 147.626,18.813 147.9,18.54C149.331,17.109 151.284,16.057 153.665,15.535C155.16,15.208 158.132,14.988 159.271,14.913C160.65,14.029 162.478,13.494 164.845,13.975C165.518,14.111 166.481,14.411 167.552,15.023C168.283,15.439 169.872,16.614 170.606,17.162C173.041,17.978 176.828,18.018 179.134,17.557C183.632,16.657 187.576,14.103 191.953,13.009C194.414,12.393 197.056,12.395 199.755,12.689C201.812,12.914 203.92,13.496 205.879,13.216C211.804,12.37 216.735,9.938 222.954,9.938C236.09,9.938 247.72,13.765 260.245,17.344C261.681,17.754 263.922,17.743 265.913,17.958C267.431,18.122 268.866,18.381 270.117,18.728C271.345,18.792 272.562,18.977 273.775,19.326C275.082,18.529 276.448,18.129 277.801,17.976C279.977,17.731 282.327,18.199 284.637,19.572C288.364,21.787 294.034,30.058 294.452,30.672C297.015,33.615 296.895,38.089 294.093,40.89C292.281,42.703 289.768,43.393 287.422,42.96C291.527,47.977 293.655,55.931 292.629,62.087C291.592,68.313 288.998,74.148 286.869,80.093C285.315,84.435 283.977,88.848 284.8,93.785C285.183,96.082 285.697,98.332 286.257,100.563C287.153,101.458 288.075,102.262 288.899,103.128C291.973,106.362 294.359,109.969 294.841,115.747C295.65,125.461 292.787,133.469 288.301,141.943C287.76,142.965 286.685,144.618 285.701,146.456C285.54,146.757 285.358,147.156 285.19,147.56C285.975,148.066 286.81,148.639 287.317,149.082C288.85,150.422 289.953,152.013 290.567,153.856C291.665,157.149 291.378,161.115 289.979,165.103C288.936,168.078 287.25,171.109 286.027,173.51C287.687,174.583 288.849,176.103 289.499,178.055C290.003,179.565 290.158,181.512 289.469,183.705C290.27,184.359 290.915,185.156 291.422,186.045C292.293,187.569 293.126,189.892 292.026,193.367C291.32,195.597 289.97,197.673 288.419,199.635C290.377,200.555 291.77,201.989 292.66,203.78C294.332,207.146 294.106,211.141 291.625,215.109C291.099,215.95 290.417,216.806 289.659,217.645C290.275,218.973 290.564,220.6 290.231,222.516C289.985,223.929 288.84,226.128 288.096,227.434C290.871,228.637 292.745,230.63 293.653,233.355C295.509,238.921 294.301,244.169 291.556,249.217C290.705,250.781 289.696,252.328 288.68,253.87C289.024,255.598 289.315,257.331 289.531,259.068C292.055,260.276 293.799,262.854 293.799,265.836C293.799,267.557 292.385,270.07 291.254,271.802C291.079,273.125 290.74,274.394 290.293,275.636C289.75,277.146 288.827,278.537 288.448,280.156C288.613,280.665 288.983,281.835 289.15,282.502C289.55,284.1 289.708,285.75 289.453,287.538C289.114,289.91 288.272,291.829 287.164,293.575C286.551,294.541 285.748,295.374 285.125,296.406C284.95,297.319 284.569,299.18 284.236,299.973C283.737,301.159 283.064,302.097 282.35,302.812C280.395,304.767 277.726,306.334 275.448,308.122C275.317,308.459 275.171,308.792 275.009,309.12C272.913,313.382 268.732,316.041 264.947,316.041C261.255,316.041 259.188,314.152 258.047,311.499C257.717,310.732 256.411,307.793 258.742,304.268C258.916,304.005 259.351,303.471 259.904,302.822L258.492,301.284C257.884,300.636 257.277,299.988 256.67,299.34L255.753,298.374C254.193,299.575 251.932,301.332 250.887,302.203C249.994,302.947 248.428,304.406 247.338,304.997C245.787,305.837 244.302,306.081 243.102,306.054C239.957,305.982 237.139,304.706 235.767,300.592C235.633,300.19 235.515,299.71 235.43,299.166C232.881,299.805 230.245,300.068 227.533,299.525C225.902,299.199 224.526,298.618 223.324,297.866C221.408,297.528 219.635,297.177 215.868,298.522C209.868,300.665 203.645,303.941 198.04,306.959C197.665,307.161 194.52,309.127 192.59,310.019C191.32,310.606 190.211,310.905 189.501,311.013C188.147,311.22 186.991,311.11 186.014,310.82C185.168,311.357 184.317,311.856 183.457,312.295C182.985,312.618 180.304,314.428 179.05,314.824C175.963,315.798 173.134,315.303 170.631,313.071C169.139,311.74 167.998,309.847 167.941,307.415C166.419,307.608 164.907,307.832 163.406,308.097C155.073,309.571 146.701,311.555 138.249,312.763C132.134,313.636 127.097,312.292 122.404,310.049C120.325,310.779 118.286,311.347 116.358,311.668C112.887,312.247 108.708,310.34 107.341,309.645C100.199,309.74 93.044,311.379 85.909,310.666C79.682,310.043 73.716,307.856 67.438,307.856C59.375,307.856 50.331,306.789 42.479,305.219C41.799,305.083 40.757,305.201 39.726,305.135C37.968,305.023 36.236,304.702 34.775,304.118C32.401,303.169 30.532,301.634 29.352,299.397C26.581,298.988 24.92,297.233 23.938,295.106C23.536,294.236 22.844,292.65 23.358,290.432C23.201,289.637 23.164,288.721 23.325,287.676C23.408,287.137 24.051,285.629 24.754,284.098C21.891,284.345 19.762,283.215 18.362,281.816C16.59,280.044 15.904,278.015 15.937,275.842C15.954,274.759 16.183,273.591 16.707,272.408C17.155,271.398 18.19,270.182 18.762,269.283L19.17,268.62C16.389,267.903 14.923,266.189 14.11,264.564C13.229,262.802 12.945,260.767 13.503,258.569C14.021,256.524 17.112,252.594 17.112,252.594C17.112,252.594 16.995,252.74 16.954,252.795L17.183,252.495C15.891,251.922 15.063,251.114 14.803,250.855C12.933,248.984 11.728,246.139 12.906,242.488C13.576,240.409 17.078,236.203 17.078,236.203C17.078,236.203 16.909,236.394 16.903,236.4L17.811,235.34C17.692,235.288 17.576,235.234 17.464,235.178C13.684,233.288 12.691,230.401 12.908,227.295C12.996,226.041 13.401,224.546 14.381,223.032C15.086,221.943 17.453,219.543 17.711,219.283C20.119,216.006 22.688,212.831 25.188,209.616C24.463,208.276 23.867,206.351 24.574,203.519C25.042,201.647 25.851,199.869 26.876,198.158C25.373,196.64 23.753,193.676 25.04,189.532L25.044,189.519C24.365,189.139 23.806,188.683 23.344,188.222C22.099,186.976 21.237,185.345 21.105,183.244C21.042,182.25 21.167,180.886 21.794,179.418C21.884,179.205 22.007,178.964 22.15,178.714C20.756,178.241 19.731,177.491 19.074,176.833C17.052,174.812 16.166,172.188 16.799,169.057C17.299,166.583 21.434,161.431 21.434,161.431C21.434,161.431 21.188,161.74 21.121,161.833L21.505,161.311C19.251,160.856 17.895,159.398 17.124,158.342C16.463,157.436 13.333,153.106 18.006,148.433C19.816,146.624 21.641,144.812 23.319,142.883C20.373,142.666 18.718,140.949 17.807,139.627C16.727,138.06 15.113,135.073 17.781,131.071C18.499,129.994 19.3,128.984 20.139,128.006C19.203,127.664 18.377,127.14 17.647,126.479C16.461,125.404 15.098,123.702 15.098,120.641C15.098,119.084 15.463,117.4 16.304,115.663C17.226,113.757 18.965,111.561 20.982,109.306L21.373,108.871C19.973,108.062 18.985,106.938 18.334,105.592C17.648,104.177 17.136,102.276 17.974,99.764C18.666,97.688 20.183,95.446 22.051,93.166C19.467,92.874 17.73,91.504 16.572,89.645C15.817,88.434 14.745,86.319 15.839,83.038C16.806,80.135 19.069,77.039 21.974,74.124C22.436,73.66 22.919,73.2 23.412,72.746C22.579,71.695 21.859,70.197 21.859,67.972C21.859,66.915 22.128,65.006 23.551,62.986C24.34,61.866 26.756,59.328 27.091,58.978C27.71,58.17 28.556,57.159 29.461,56.026C29.34,56.005 29.223,55.98 29.112,55.954C26.395,55.32 24.772,53.676 23.864,51.583C23.31,50.307 22.639,48.233 23.893,45.438C22.505,44.019 21.282,42.592 20.409,41.37C20.281,41.191 17.566,36.921 17.229,35.849C15.96,31.814 17.944,29.279 19.074,28.149C19.888,27.335 21.421,26.22 23.761,25.857C23.791,24.81 24.076,23.686 24.689,22.486C24.992,21.894 25.477,21.125 26.297,20.357C26.72,19.961 28.153,19.074 28.758,18.671C29.374,18.26 31.481,16.727 33.423,15.837C34.644,14.643 35.689,13.68 35.689,13.68C37.325,12.185 39.451,11.548 41.503,11.757ZM198.754,27.612C197.661,27.432 196.593,27.31 195.591,27.561C190.986,28.712 186.808,31.319 182.076,32.265C177.147,33.251 168.819,32.748 164.127,30.737C163.914,30.646 163.188,30.169 162.408,29.636C161.382,29.817 159.779,29.967 158.563,30.062C157.421,32.189 155.679,34.425 153.243,35.034C149.508,35.968 145.689,35.29 141.963,33.932C141.094,33.615 140.231,33.264 139.377,32.939C138.451,34.644 137.151,35.831 135.615,36.584C134.065,37.344 132.146,37.787 129.676,37.169C128.537,36.885 126.78,36.058 124.899,34.568L123.014,33.086C121.467,33.835 119.751,34.012 118.144,33.659C117.033,34.781 115.4,35.695 113.036,35.665C113.553,38.749 112.387,41.102 110.819,42.67C108.447,45.042 103.412,47.075 98.791,41.773C98.199,41.093 97.509,40.047 96.812,38.847L96.355,38.619C95.285,40.478 93.435,41.844 91.21,42.252C87.74,42.889 84.296,41.021 82.937,37.765C82.937,37.765 82.205,35.984 81.493,34.501L81.413,34.554C78.703,36.719 76.036,38.967 73.22,40.978C72.683,41.362 69.338,43.507 67.416,43.821C65.482,44.137 63.813,43.828 62.42,43.114C62.213,43.169 62.017,43.211 61.838,43.238C60.214,43.484 58.825,43.219 57.764,42.811C55.847,42.075 54.259,40.885 53.435,38.931C52.329,39.128 51.264,39.483 50.215,39.896C49.96,40.357 49.677,40.745 49.407,41.071C48.647,41.985 47.768,42.684 46.758,43.143C47.51,44.126 48.054,45.279 48.379,46.58C49.094,49.437 48.706,52.799 47.179,56.216C46.553,57.616 45.703,59.057 44.769,60.456C46.071,62.203 46.702,64.447 46.211,67.15C45.732,69.786 42.488,74.284 41.932,75.088C41.379,75.885 40.697,76.709 39.928,77.55C41.097,78.575 41.924,79.877 42.427,81.383C44.113,86.442 42.661,91.445 39.265,96.067C38.887,96.582 38.483,97.094 38.064,97.602C38.957,98.61 39.528,99.788 39.838,101.028C40.857,105.104 39.62,109.469 36.895,113.543C37.445,113.912 37.919,114.311 38.313,114.718C39.465,115.911 40.537,117.782 40.603,120.371C40.653,122.305 39.601,125.807 39.251,126.768C40.049,127.229 40.72,127.768 41.251,128.338C42.566,129.749 43.548,131.769 43.611,134.368C43.684,137.41 41.591,142.569 40.945,143.769L40.701,144.205C41.838,145.202 42.69,146.522 43.236,148.162C43.773,149.773 43.951,152.513 42.627,155.763C41.774,157.858 40.08,160.677 38.347,163.321C39.952,164.234 41.128,165.696 41.806,167.705C42.166,168.776 42.364,170.219 42.196,171.753C42.06,173.002 41.651,174.37 41.457,174.956C43.513,176.308 45.115,178.625 44.846,182.205C44.82,182.541 44.728,182.969 44.594,183.44C45.848,184.253 46.76,185.318 47.376,186.509C48.179,188.063 48.593,189.933 48.023,192.21C47.227,195.394 45.47,198.296 43.355,201.044C42.873,201.67 42.341,202.271 41.82,202.871C42.977,204.742 43.447,207.036 42.833,209.636C42.478,211.141 41.301,213.069 40.193,214.647C43.294,216.2 44.557,218.609 44.803,221.377C44.914,222.634 44.753,224.099 44.125,225.642C43.479,227.231 41.745,229.372 40.801,230.694L40.36,231.303C42.404,232.49 44.012,234.493 44.118,237.78C44.149,238.748 43.965,240.303 43.224,242.077C42.184,244.567 39.517,248.647 39.377,248.843C37.881,250.938 36.258,252.908 34.614,254.86C35.765,255.695 36.583,256.751 37.135,257.856C37.873,259.332 38.253,261.176 38.118,263.233C39.81,263.429 41.378,264.005 42.772,264.934C44.673,266.201 45.716,267.885 46.169,269.841C46.447,271.04 45.865,273.892 45.559,275.238C46.529,275.388 47.333,275.711 47.987,276.091C48.563,275.868 49.095,275.703 49.553,275.615C51.804,275.184 53.645,275.454 55.116,276.151C55.735,275.812 56.338,275.541 56.9,275.369C59.275,274.639 61.461,274.79 63.339,275.545C69.234,274.412 75.187,273.368 81.098,272.629C83.619,272.314 85.989,272.531 88.319,272.972C90.236,273.335 92.091,273.995 94.128,273.995C105.168,273.995 116.138,273.283 127.224,273.283C141.195,273.283 154.388,269.941 168.182,268.687C175.098,268.059 182.202,269.385 189.111,268.694C198.444,267.761 211.534,265.126 220.858,267.457C225.098,268.517 228.925,271.282 233.321,271.943C240.322,272.995 247.69,272.545 254.743,273.329C256.103,273.48 260.687,273.645 262.968,274.575C263.787,274.908 264.501,275.315 265.118,275.771C267.094,275.148 269.084,274.817 271.056,274.492C271.91,274.351 272.788,274.291 273.622,274.011C273.893,273.258 274.137,272.493 274.33,271.707C272.947,270.846 271.786,269.688 270.903,268.156C270.426,267.327 269.956,266.137 269.764,264.654C269.52,262.767 269.825,259.627 270.004,258.553C270.413,256.099 271.407,253.668 272.699,251.266C271.134,245.013 269.311,238.798 268.537,232.603C268.334,230.983 268.156,229.362 268,227.741C266.915,226.247 266.142,224.096 266.987,221.195C267.075,220.895 267.212,220.514 267.41,220.081C266.576,205.946 267.055,191.78 267.055,177.58C267.055,167.238 265.455,155.243 267.157,145.03C267.899,140.577 269.838,136.452 271.839,132.348C273.159,129.642 274.569,126.967 274.942,123.981C275.495,119.559 274.735,115.496 273.747,111.499C273.452,110.307 273.136,109.119 272.814,107.932C272.166,107.117 271.546,106.241 270.971,105.282C267.754,99.92 268.124,91.779 268.898,85.861C269.409,81.952 270.848,78.212 272.324,74.488C273.297,72.031 274.337,69.597 274.554,66.993C275.059,60.935 273.492,55.887 272.477,50.264C272.165,50.091 271.86,49.908 271.57,49.709C269.228,48.101 267.347,46.101 266.242,43.534C265.591,42.021 265.277,40.298 265.324,38.461C259.531,39.619 253.701,40.754 247.858,41.588C239.815,42.737 228.895,44.287 220.938,41.635C219.992,41.319 218.437,40.491 216.676,39.168C215.653,38.399 213.669,37.008 212.25,36.024C210.329,36.341 208.679,36.204 207.835,35.983C206.401,35.608 205.324,34.948 204.509,34.19L198.754,34.19L198.754,27.612ZM42.853,187.977L42.755,188.195C42.755,188.195 42.956,187.785 42.975,187.744L42.853,187.977ZM168.235,26.882C168.316,26.808 168.394,26.732 168.471,26.656L168.235,26.882Z" style="fill:white;"/>
        <g id="Layer5">
        </g>
    </g>
    <g transform="matrix(1,0,0,1,7,8)">
        <path d="M97.585,300.583C97.604,298.521 97.669,291.349 97.669,290.036C97.669,273.719 96.957,257.525 96.957,241.281C96.957,229.217 97.607,216.446 96.276,204.467C95.323,195.892 97.129,187.019 96.27,178.433C95.138,167.106 93.956,153.394 95.584,141.998C99.211,116.611 96.957,89.132 96.957,63.345L96.957,21.352C96.957,19.121 96.356,13.565 97.114,10.432C98.073,6.468 100.634,4.609 103.737,4.609C106.496,4.609 108.737,6.849 108.737,9.609C108.737,11.193 107.998,12.606 106.846,13.521C106.879,15.333 106.957,19.955 106.957,21.352L106.957,63.345C106.957,89.596 109.175,117.568 105.484,143.412C103.963,154.055 105.163,166.86 106.221,177.438C107.076,185.988 105.266,194.824 106.215,203.362C107.586,215.702 106.957,228.855 106.957,241.281C106.957,257.525 107.669,273.719 107.669,290.036C107.669,291.912 108.103,300.297 107.277,303.577C106.306,307.439 103.532,308.559 101.601,308.559C98.842,308.559 96.601,306.318 96.601,303.559C96.601,302.444 96.967,301.414 97.585,300.583ZM101.024,298.592L100.964,298.601L101.05,298.59L101.024,298.592ZM101.215,298.574L101.144,298.58L101.299,298.569L101.215,298.574ZM101.369,298.565L101.601,298.559C101.524,298.559 101.446,298.56 101.369,298.565ZM103.928,14.604L103.737,14.609C103.801,14.609 103.865,14.607 103.928,14.604Z"/>
    </g>
    <g transform="matrix(1,0,0,1,7,8)">
        <path d="M208.125,299.847C208.292,300.343 208.381,300.873 208.381,301.423C208.381,305.064 205.714,305.996 205.317,306.165C203.937,306.749 202.462,306.786 200.921,305.924C200.396,305.63 199.457,305.046 198.808,303.633C198.721,303.445 198.431,302.66 198.237,301.43C197.899,299.282 197.313,294.231 197.313,292.171C197.313,284.872 197.669,277.731 197.669,270.463C197.669,248.243 195.619,227.08 193.423,205.124C190.888,179.771 195.174,153.623 192.362,128.31C190.403,110.678 188.235,92.099 190.226,74.181C192.613,52.702 196.957,31.544 196.957,9.964C196.957,7.205 199.198,4.964 201.957,4.964C204.717,4.964 206.957,7.205 206.957,9.964C206.957,31.913 202.592,53.439 200.165,75.285C198.255,92.474 200.421,110.292 202.3,127.206C205.117,152.555 200.835,178.74 203.374,204.129C205.603,226.419 207.669,247.905 207.669,270.463C207.669,277.731 207.313,284.872 207.313,292.171C207.313,293.753 207.928,298.405 208.125,299.847ZM198.969,299.072C198.693,299.536 198.434,300.203 198.39,301.13C198.433,300.389 198.637,299.692 198.969,299.072Z"/>
    </g>
    <g transform="matrix(1,0,0,1,7,8)">
        <path d="M18.327,107.847C30.551,107.847 44.258,104.29 56.651,106.355C67.417,108.15 78.356,108.583 89.237,109.944C106.082,112.049 124.395,109.982 141.459,109.982C163.473,109.982 186.913,112.084 208.473,108.491C214.94,107.413 222.181,108.915 228.648,108.915L261.032,108.915C263.08,108.915 265.647,108.602 268.187,108.441C269.923,108.33 271.647,108.216 272.974,108.658C277.11,110.037 283.421,110.338 287.367,110.338C290.126,110.338 292.367,108.098 292.367,105.338C292.367,102.579 290.126,100.338 287.367,100.338C284.292,100.338 279.359,100.245 276.136,99.171C271.991,97.789 265.404,98.915 261.032,98.915L228.648,98.915C221.655,98.915 213.822,97.461 206.829,98.627C185.798,102.132 162.932,99.982 141.459,99.982C124.8,99.982 106.922,102.076 90.478,100.021C79.731,98.678 68.928,98.264 58.295,96.492C45.373,94.338 31.073,97.847 18.327,97.847C15.568,97.847 13.327,100.087 13.327,102.847C13.327,105.607 15.568,107.847 18.327,107.847Z"/>
    </g>
    <g transform="matrix(1,0,0,1,7,8)">
        <path d="M268.603,205.99C268.308,206.002 266.528,206.075 265.557,206.136C263.344,206.275 261.236,206.048 259.508,205.184C258.531,204.696 256.842,204.992 255.136,205.114C252.275,205.318 249.36,205.712 247.509,205.712C236.088,205.712 223.117,206.392 212.832,202.964C210.896,202.319 208.135,202.445 205.357,202.607C201.776,202.815 198.165,203.221 195.552,203.221C193.445,203.221 190.925,202.661 188.948,203.32C183.893,205.005 178.171,204.728 172.396,204.147C167.857,203.69 163.284,203.012 159.166,203.835C149.723,205.724 140.441,206.899 130.893,208.491C125.115,209.454 114.902,209.458 109.285,208.054C107.116,207.511 104.721,207.701 102.317,207.855C98.993,208.07 95.654,208.289 92.594,207.779C90.07,207.358 86.524,208.102 83.286,208.278C79.908,208.462 76.775,208.124 74.454,206.963C73.218,206.345 71.424,206.292 69.521,206.272C65.402,206.229 60.853,206.779 57.829,206.779C45.255,206.779 33.313,205.712 20.819,205.712C18.059,205.712 15.819,203.471 15.819,200.712C15.819,197.952 18.059,195.712 20.819,195.712C33.313,195.712 45.255,196.779 57.829,196.779C60.88,196.779 65.47,196.229 69.626,196.273C73.241,196.311 76.577,196.844 78.927,198.019C80.315,198.713 82.348,198.35 84.411,198.171C87.937,197.864 91.545,197.466 94.238,197.915C96.578,198.305 99.132,198.04 101.674,197.876C105.139,197.653 108.584,197.57 111.711,198.352C116.269,199.492 124.56,199.408 129.249,198.627C138.689,197.053 147.868,195.897 157.204,194.029C162.243,193.022 167.843,193.638 173.398,194.197C177.716,194.632 182.005,195.093 185.785,193.833C188.716,192.856 192.431,193.221 195.552,193.221C198.558,193.221 202.941,192.64 207,192.525C210.392,192.429 213.594,192.677 215.994,193.477C225.335,196.591 237.136,195.712 247.509,195.712C250.005,195.712 254.509,194.947 258.068,195.025C260.341,195.074 262.342,195.471 263.798,196.153C264.075,196.143 265.873,196.073 266.845,196.011C269.062,195.869 271.164,196.095 272.877,196.951C275.04,198.033 279.407,198.203 281.673,198.203C284.432,198.203 286.673,200.443 286.673,203.203C286.673,205.962 284.432,208.203 281.673,208.203C278.306,208.203 271.941,207.562 268.603,205.99Z"/>
    </g>
    <g id="Layer1" transform="matrix(1,0,0,1,7,8)">
        <path d="M45.946,38.248C44.545,36.678 44.598,34.265 46.104,32.759C47.665,31.198 50.2,31.198 51.761,32.759C52.965,33.962 53.846,35.964 54.161,38.451C54.61,41.994 54,46.84 54,49.11C54,62.755 50.085,77.178 50.085,90.391C50.085,92.599 48.293,94.391 46.085,94.391C43.878,94.391 42.085,92.599 42.085,90.391C42.085,77.178 46,62.755 46,49.11C46,47.294 46.457,43.713 46.321,40.644C46.282,39.778 45.999,38.482 45.946,38.248Z" style="fill-opacity:0.63;"/>
        <path d="M69.724,24.16C70.382,23.683 71.19,23.402 72.064,23.402C74.125,23.402 74.989,24.497 75.325,24.91C76.051,25.806 76.324,26.81 76.196,27.907C76.128,28.49 75.867,30.073 73.969,31.081C73.091,31.547 68.78,32.85 67.51,33.104C63.739,33.858 60.11,34.641 56.468,36.098C45.364,40.54 30.349,45.281 18.327,45.281C16.12,45.281 14.327,43.489 14.327,41.281C14.327,39.073 16.12,37.281 18.327,37.281C29.423,37.281 43.249,32.77 53.497,28.67C57.605,27.027 61.688,26.11 65.942,25.259C66.575,25.133 68.712,24.475 69.724,24.16ZM70.126,30.9C70.58,31.18 71.205,31.402 72.064,31.402C71.361,31.402 70.7,31.22 70.126,30.9Z" style="fill-opacity:0.63;"/>
        <path d="M139.238,38.79C139.238,44.948 137.379,50.421 136.767,56.541C135.879,65.42 135.68,74.296 135.68,83.274C135.68,85.482 137.472,87.274 139.68,87.274C141.887,87.274 143.68,85.482 143.68,83.274C143.68,74.563 143.866,65.952 144.727,57.338C145.367,50.946 147.238,45.221 147.238,38.79C147.238,36.582 145.446,34.79 143.238,34.79C141.031,34.79 139.238,36.582 139.238,38.79Z" style="fill-opacity:0.63;"/>
        <path d="M249.808,89.405C249.635,89.493 248.577,90.029 248.003,90.356C246.759,91.063 245.483,91.641 244.252,91.846C237.553,92.962 227.561,91.905 222.172,87.415C212.129,79.045 212.149,67.024 217.664,57.062C222.95,47.515 233.385,40.128 243.95,40.128C246.158,40.128 247.95,41.92 247.95,44.128C247.95,46.336 246.158,48.128 243.95,48.128C236.127,48.128 228.577,53.868 224.663,60.937C220.979,67.593 220.584,75.677 227.294,81.269C231.092,84.434 238.216,84.742 242.937,83.955C243.756,83.818 244.525,83.11 245.349,82.667C246.785,81.895 248.248,81.409 249.644,81.409C251.852,81.409 253.644,83.202 253.644,85.409C253.644,87.562 251.94,89.32 249.808,89.405Z" style="fill-opacity:0.63;"/>
        <path d="M43.207,129.947C41.548,139.901 43.758,150.672 41.807,160.426C40.675,166.089 39.594,171.724 39.594,177.58C39.594,179.788 41.387,181.58 43.594,181.58C45.802,181.58 47.594,179.788 47.594,177.58C47.594,172.258 48.622,167.142 49.652,161.994C51.619,152.159 49.426,141.3 51.099,131.263C51.462,129.085 49.988,127.022 47.811,126.659C45.633,126.296 43.57,127.77 43.207,129.947Z" style="fill-opacity:0.63;"/>
        <path d="M65.259,130.888C63.535,131.001 54.794,131.59 52.564,132.036C47.75,132.999 42.641,133.867 37.754,134.565C34.952,134.965 32.225,136.06 29.475,137.021C26.049,138.219 22.594,139.231 19.039,139.231C16.831,139.231 15.039,137.439 15.039,135.231C15.039,133.024 16.831,131.231 19.039,131.231C21.703,131.231 24.268,130.367 26.835,129.469C30.079,128.336 33.317,127.117 36.623,126.645C41.365,125.968 46.323,125.126 50.995,124.192C54.009,123.589 65.094,122.694 66.815,122.968C69.247,123.356 69.959,125.059 70.185,125.737C70.585,126.941 70.64,128.434 69.199,129.875C68.133,130.941 66.613,131.279 65.259,130.888ZM62.385,127.375C62.292,126.245 62.677,125.082 63.542,124.218C62.47,125.289 62.254,126.392 62.385,127.375Z" style="fill-opacity:0.63;"/>
        <path d="M132.493,127.396C131.439,138.995 126.396,150.334 122.718,161.369C122.096,163.233 121.762,166.42 121.29,169.488C121.103,170.698 120.889,171.885 120.579,172.902C120.438,173.362 120.368,173.797 120.125,174.04C118.564,175.601 118.564,178.136 120.125,179.697C121.686,181.258 124.221,181.258 125.782,179.697C127.209,178.27 128.292,175.619 128.886,172.517C129.476,169.441 129.661,165.837 130.307,163.898C134.177,152.289 139.351,140.323 140.46,128.12C140.66,125.922 139.038,123.974 136.839,123.774C134.64,123.575 132.693,125.197 132.493,127.396Z" style="fill-opacity:0.63;"/>
        <path d="M143.436,123.081C143.54,123.459 144.013,125.127 144.541,126.229C146.372,130.053 149.284,134.269 150.097,136.098C153.739,144.293 156.732,152.918 160.695,160.845C163.034,165.523 167.523,174.338 167.523,179.004C167.523,181.211 165.731,183.004 163.523,183.004C161.315,183.004 159.523,181.211 159.523,179.004C159.523,177.7 158.903,175.968 158.165,174.121C156.77,170.633 154.773,166.889 153.54,164.422C149.523,156.389 146.477,147.652 142.786,139.347C141.832,137.2 138.013,131.781 136.393,127.534C135.217,124.449 135.216,121.691 136.102,119.919C137.089,117.945 139.494,117.143 141.469,118.13C143.306,119.049 144.128,121.196 143.436,123.081Z" style="fill-opacity:0.63;"/>
        <path d="M125.445,160.94L151.779,160.94C153.987,160.94 155.779,159.147 155.779,156.94C155.779,154.732 153.987,152.94 151.779,152.94L125.445,152.94C123.237,152.94 121.445,154.732 121.445,156.94C121.445,159.147 123.237,160.94 125.445,160.94Z" style="fill-opacity:0.63;"/>
        <path d="M248.325,141.999C247.761,142.032 246.87,142.078 246.441,142.078C242.078,142.078 237.326,145.187 234.055,147.913C226.007,154.62 225.532,168.944 236.273,173.548C238.95,174.695 244.313,175.284 248.73,174.51C250.817,174.145 252.804,173.703 253.54,172.233C254.527,170.258 256.932,169.456 258.906,170.444C260.881,171.431 261.682,173.835 260.695,175.81C258.973,179.254 254.997,181.534 250.11,182.39C244.081,183.446 236.776,182.467 233.122,180.901C216.692,173.859 216.623,152.026 228.934,141.767C233.501,137.961 240.347,134.078 246.441,134.078C247.654,134.078 249.525,133.872 250.823,134.229C252.405,134.665 253.587,135.596 254.289,137.001C255.277,138.976 254.475,141.381 252.5,142.368C251.106,143.065 249.497,142.87 248.325,141.999Z" style="fill-opacity:0.63;"/>
        <path d="M51.998,275.198C52.143,275.61 52.221,276.052 52.221,276.512L52.221,278.292C52.221,280.409 50.571,282.159 48.458,282.285C46.345,282.411 44.5,280.868 44.249,278.766C44.249,278.766 43.82,274.418 44.34,272.339C45.165,269.04 44.577,265.04 44.577,261.566C44.577,250.452 46,239.343 46,228.114C46,225.906 47.792,224.114 50,224.114C52.208,224.114 54,225.906 54,228.114C54,239.343 52.577,250.452 52.577,261.566C52.577,265.668 53.075,270.384 52.101,274.28C52.037,274.537 52.006,274.857 51.998,275.198Z" style="fill-opacity:0.63;"/>
        <path d="M64.28,218.103C64.805,217.85 65.393,217.708 66.014,217.708C67.593,217.708 68.371,218.426 68.7,218.717C69.571,219.487 69.949,220.4 70.036,221.352C70.107,222.129 70.145,223.86 68.186,225.107C67.898,225.29 64.43,226.372 63.554,226.622C60.904,227.379 58.235,228.408 55.675,229.368C47.752,232.339 39.522,235.334 31.86,239.165C31.188,239.501 29.549,240.063 27.859,240.682C27.165,240.936 26.222,241.349 25.64,241.612C25.263,242.221 24.718,242.736 24.031,243.079C22.056,244.067 19.652,243.265 18.664,241.291C17.846,239.654 17.794,237.384 20.232,235.51C21.879,234.243 26.967,232.667 28.282,232.009C36.194,228.054 44.685,224.945 52.866,221.877C55.624,220.843 58.502,219.745 61.357,218.93L64.28,218.103ZM25.934,237.965L25.951,238.006L25.943,237.986L25.934,237.965ZM63.801,225.039C64.198,225.328 64.828,225.659 65.793,225.702C65.059,225.662 64.377,225.423 63.801,225.039Z" style="fill-opacity:0.63;"/>
        <path d="M141.897,232.308C142.389,230.657 143.919,229.452 145.73,229.452C147.076,229.452 148.268,230.118 148.992,231.14C149.647,231.15 150.329,231.186 151.044,231.245C152.839,231.395 154.26,232.711 154.622,234.385C155.768,234.59 156.965,234.954 158.195,235.568C164.491,238.717 169.074,245.996 171.232,252.472C173.019,257.832 171.789,263.611 168.674,268.382C165.696,272.944 161.015,276.522 156.035,277.88C147.997,280.072 139.482,277.36 133.517,271.943C127.467,266.449 124.103,258.269 126.191,249.92C127.276,245.577 129.941,242.88 132.775,239.691C136.006,236.056 138.677,233.622 141.897,232.308ZM143.959,240.339C142.181,241.317 140.636,242.89 138.755,245.006C136.805,247.2 134.699,248.872 133.952,251.86C132.603,257.255 134.985,262.47 138.895,266.021C142.89,269.649 148.547,271.63 153.93,270.162C157.12,269.292 160.067,266.931 161.975,264.009C163.746,261.297 164.659,258.048 163.643,255.002C162.102,250.379 159.112,244.971 154.617,242.724C152.364,241.597 150.267,242.243 148.755,242.191C147.037,242.131 145.626,241.682 144.491,240.802C144.312,240.664 144.134,240.511 143.959,240.339Z" style="fill-opacity:0.63;"/>
        <path d="M262.523,233.181L262.446,233.188C260.984,233.278 253.455,233.788 251.013,234.195C241.52,235.777 233.298,234.961 224.021,234.961C221.814,234.961 220.021,233.169 220.021,230.961C220.021,228.753 221.814,226.961 224.021,226.961C232.845,226.961 240.668,227.809 249.698,226.304C252.316,225.867 260.385,225.3 261.952,225.203C267.128,224.883 264.327,232.718 264.244,232.759C263.691,233.036 263.104,233.172 262.523,233.181Z" style="fill-opacity:0.63;"/>
        <path d="M264.026,275.88C264.578,274.333 266.057,273.224 267.794,273.224C270.001,273.224 271.794,275.017 271.794,277.224C271.794,280.107 269.932,282.475 266.263,283.631C264.104,284.311 261.13,284.603 258.348,284.795C256.306,284.936 254.401,284.956 253.4,285.289C251.551,285.906 249.767,286.61 247.85,287.133C245.432,287.792 243.077,288.683 240.65,289.29C239.646,289.541 234.404,291.328 231.829,291.046C229.652,290.808 228.268,289.681 227.561,288.266C226.352,285.847 226.056,283.532 226.008,281.1C225.975,279.433 226.094,277.692 225.77,275.747C224.442,267.782 222.551,259.804 221.48,251.774C220.985,248.063 220.124,244.327 219.387,240.642C219.068,239.047 218.512,237.403 218.282,235.797C218.193,235.171 218.234,233.524 218.259,233.295C218.599,230.185 221.386,229.795 221.654,229.756C222.631,229.611 223.624,229.78 224.58,230.469C224.985,230.762 225.644,231.299 226.027,232.428C226.053,232.504 226.242,232.925 226.242,233.808C226.242,233.944 226.235,234.078 226.222,234.21L226.216,234.759C226.433,236.192 226.947,237.651 227.232,239.073C228.003,242.927 228.892,246.836 229.41,250.717C230.469,258.661 232.348,266.552 233.661,274.431C233.987,276.389 233.994,278.18 233.998,279.893C234,280.91 233.968,281.89 234.133,282.869C234.299,282.838 234.459,282.804 234.599,282.769C236.416,282.314 238.201,281.656 238.71,281.529C241.081,280.936 243.382,280.059 245.745,279.415C247.517,278.932 249.161,278.27 250.87,277.7C252.746,277.075 257.007,276.983 260.809,276.558C261.861,276.44 263.318,276.071 264.026,275.88ZM218.696,235.658L218.706,235.676L218.685,235.635L218.696,235.658Z" style="fill-opacity:0.63;"/>
        <path d="M270.077,252.576C270.575,252.352 271.127,252.228 271.708,252.228C273.916,252.228 275.708,254.02 275.708,256.228C275.708,257.442 275.263,259.302 272.844,260.175C272.246,260.39 270.935,260.604 269.322,260.652C266.847,260.727 263.339,260.584 262.456,260.584C251.421,260.584 240.211,262.007 229.004,262.007C226.796,262.007 225.004,260.215 225.004,258.007C225.004,255.799 226.796,254.007 229.004,254.007C240.211,254.007 251.421,252.584 262.456,252.584L270.077,252.576ZM267.713,256.023C267.71,256.091 267.708,256.159 267.708,256.228L267.713,256.023ZM268.101,254.499C267.854,254.991 267.737,255.504 267.714,256.02C267.741,255.477 267.878,254.963 268.101,254.499Z" style="fill-opacity:0.63;"/>
        <path d="M40.363,31.843C39.439,28.488 40.295,24.745 42.929,22.11C46.249,18.791 49.536,18.845 51.76,19.193C54.307,19.593 56.752,20.83 58.583,23.528C59.127,24.33 59.685,25.393 60.045,26.758C60.363,27.963 60.351,32.306 60.351,32.306C60.351,32.306 60.356,32.104 60.356,32.028C60.356,34.457 60.712,36.71 60.712,39.146L60.712,58.363C60.712,76.832 58.311,98.124 60.295,115.978C62.127,132.467 60.712,149.515 60.712,166.192L60.712,227.402C60.712,238.18 61.987,250.474 60.22,261.075C58.408,271.944 58.221,283.93 58.221,295.018C58.221,300.537 53.74,305.018 48.221,305.018C42.701,305.018 38.221,300.537 38.221,295.018C38.221,282.854 38.505,269.71 40.492,257.787C42.086,248.222 40.712,237.127 40.712,227.402L40.712,166.192C40.712,150.248 42.169,133.95 40.417,118.186C38.357,99.649 40.712,77.54 40.712,58.363L40.712,39.146C40.712,36.71 40.356,34.457 40.356,32.028L40.363,31.843ZM56.691,36.613C56.133,37.116 55.532,37.545 54.899,37.898C55.482,37.58 56.085,37.164 56.691,36.613ZM56.7,36.605C56.824,36.494 56.947,36.376 57.071,36.253L56.7,36.605Z" style="fill:rgb(247,250,37);fill-opacity:0.7;"/>
    </g>
</svg>
