<?xml version="1.0" standalone="no"?>
<!DOCTYPE svg PUBLIC "-//W3C//DTD SVG 20010904//EN"
 "http://www.w3.org/TR/2001/REC-SVG-20010904/DTD/svg10.dtd">
<svg version="1.0" xmlns="http://www.w3.org/2000/svg"
 width="700.000000pt" height="700.000000pt" viewBox="0 0 700.000000 700.000000"
 preserveAspectRatio="xMidYMid meet">
<metadata>
Created by potrace 1.11, written by Peter Selinger 2001-2013
</metadata>
<g transform="translate(0.000000,700.000000) scale(0.100000,-0.100000)"
fill="#000000" stroke="none">
<path d="M2227 6794 c-1 -1 -81 -4 -177 -8 -182 -6 -237 -10 -317 -20 -26 -4
-68 -9 -93 -11 -25 -3 -72 -10 -105 -16 -33 -6 -154 -13 -270 -14 -115 -2
-221 -6 -235 -9 -14 -4 -56 -8 -95 -11 -231 -16 -266 -33 -366 -174 -22 -31
-62 -83 -90 -116 -89 -107 -168 -305 -203 -510 -2 -16 -11 -61 -18 -100 -8
-38 -13 -92 -12 -120 6 -128 5 -173 0 -215 -12 -86 -21 -216 -20 -295 2 -139
15 -647 19 -730 7 -141 8 -559 2 -600 -22 -140 -24 -242 -14 -570 3 -88 2
-189 -3 -225 -5 -36 -12 -99 -16 -140 -3 -41 -8 -83 -9 -92 -2 -9 -7 -57 -10
-105 -4 -48 -8 -95 -10 -103 -17 -65 -34 -955 -19 -1010 10 -38 11 -246 1
-320 -10 -83 -11 -205 -2 -261 3 -24 9 -57 11 -74 21 -132 82 -288 152 -390
21 -31 75 -81 137 -129 134 -103 180 -131 257 -157 53 -18 77 -20 153 -15 50
3 104 8 120 11 27 4 156 7 815 19 157 3 238 8 350 22 175 21 366 21 565 -1 55
-6 158 -15 230 -20 55 -4 102 -8 250 -21 28 -2 68 -6 90 -10 22 -3 148 -7 280
-9 358 -6 537 -12 565 -20 49 -15 371 -14 485 2 113 15 322 22 812 28 155 2
315 6 355 9 100 9 172 18 179 22 3 1 39 6 80 9 127 11 189 23 238 47 57 27
182 151 239 237 58 88 74 144 87 316 2 39 8 81 12 95 3 14 6 376 5 805 -2
1002 -9 1219 -48 1514 -29 221 -35 807 -10 1091 3 30 8 91 11 135 4 44 8 96
10 115 12 115 -4 887 -20 969 -5 25 -11 122 -20 326 -12 259 -32 373 -86 474
-41 78 -63 102 -149 159 -123 81 -169 99 -300 118 -72 10 -467 13 -560 3 -127
-13 -182 -19 -215 -23 -135 -20 -346 -24 -470 -10 -33 3 -199 8 -370 9 -170 1
-323 5 -340 8 -16 3 -73 8 -125 12 -52 4 -106 8 -120 10 -14 2 -70 7 -125 10
-55 4 -116 9 -135 11 -19 3 -174 7 -345 9 -170 2 -320 6 -332 9 -28 6 -122 14
-238 21 -49 3 -103 8 -120 11 -27 5 -294 21 -298 18z m223 -198 c36 -4 81 -9
100 -11 19 -3 83 -7 141 -10 58 -3 116 -8 130 -11 13 -3 101 -7 194 -10 523
-12 517 -12 715 -29 41 -4 100 -9 130 -10 71 -5 186 -16 225 -21 17 -3 98 -4
180 -3 236 2 370 0 412 -6 67 -11 456 -14 518 -5 33 5 83 12 110 15 28 4 64 8
80 10 182 22 533 23 635 1 8 -1 33 -6 55 -11 39 -7 147 -68 193 -109 41 -36
72 -125 86 -246 6 -52 13 -159 21 -345 4 -71 8 -141 10 -155 21 -170 35 -807
22 -995 -4 -55 -10 -127 -12 -160 -2 -33 -7 -93 -11 -134 -7 -80 -14 -278 -15
-406 -2 -140 15 -549 26 -623 12 -92 15 -112 20 -177 3 -38 7 -90 10 -115 11
-126 18 -386 21 -865 8 -953 7 -1065 -6 -1150 -4 -33 -11 -98 -15 -145 -3 -47
-11 -101 -17 -120 -22 -70 -153 -220 -214 -246 -17 -7 -71 -15 -120 -19 -49
-3 -96 -7 -104 -10 -8 -2 -35 -7 -60 -10 -25 -4 -58 -9 -75 -12 -16 -3 -163
-7 -325 -9 -724 -11 -788 -13 -871 -29 -117 -23 -449 -22 -512 0 -13 5 -288
13 -627 19 -118 2 -224 6 -236 9 -11 3 -58 8 -105 12 -46 3 -100 8 -119 10
-19 2 -73 6 -120 10 -47 3 -92 8 -100 10 -100 25 -601 25 -732 0 -35 -7 -273
-15 -623 -20 -358 -6 -522 -12 -536 -21 -4 -2 -36 -5 -72 -5 -79 -1 -142 26
-242 106 -38 31 -78 61 -88 67 -45 24 -143 223 -163 331 -22 118 -22 118 -7
418 5 109 4 193 -3 243 -6 43 -9 157 -8 254 4 225 14 583 18 642 6 79 17 204
21 240 2 19 9 85 15 145 6 61 14 130 17 155 10 95 9 314 -2 387 -12 75 -12
184 -2 253 3 19 9 62 12 95 4 33 9 63 12 68 5 9 4 410 -3 542 -17 362 -23 914
-12 985 6 36 12 139 13 230 1 105 8 194 19 245 9 44 18 89 20 100 28 142 95
296 158 365 17 19 56 68 86 108 29 40 65 77 78 83 14 5 66 12 117 15 50 3 111
9 136 14 25 5 133 9 239 10 106 0 198 3 205 5 6 2 32 6 57 9 25 2 79 9 120 15
94 14 140 18 260 27 52 3 96 7 97 8 5 5 367 -2 423 -8z"/>
<path d="M2682 6384 c-34 -24 -44 -52 -48 -133 -3 -80 -12 -196 -18 -227 -2
-11 -7 -48 -11 -84 -5 -36 -9 -72 -10 -80 -13 -96 -18 -245 -20 -555 -1 -203
-6 -444 -10 -535 -4 -91 -8 -192 -9 -225 l-2 -60 -189 -5 c-279 -7 -1067 -5
-1397 5 -157 4 -298 5 -312 1 -65 -16 -88 -99 -42 -153 23 -27 25 -27 152 -29
71 -1 226 -6 344 -10 214 -7 643 -9 1130 -5 140 2 267 2 281 2 25 -1 26 -2 24
-68 -1 -38 -6 -174 -10 -303 -4 -129 -9 -401 -10 -605 -2 -309 -11 -614 -19
-622 -1 -1 -42 -4 -91 -7 -50 -4 -121 -8 -160 -11 -126 -10 -330 -22 -520 -31
-66 -3 -140 -7 -165 -9 -57 -5 -172 -16 -202 -19 -13 -2 -50 -7 -83 -10 -51
-7 -102 -15 -245 -40 -14 -2 -59 -11 -100 -20 -115 -24 -132 -27 -170 -33 -19
-2 -54 -13 -77 -23 -33 -14 -44 -26 -51 -52 -12 -45 4 -86 41 -108 32 -20 31
-20 182 10 55 11 111 22 125 25 14 3 48 9 75 15 28 5 68 12 90 16 22 3 47 7
55 9 8 2 42 7 75 11 33 3 62 7 65 9 3 2 44 6 90 10 47 3 96 8 110 10 14 2 77
6 140 10 112 5 170 8 390 20 58 3 119 8 135 10 17 2 88 6 158 10 l128 8 -5
-94 c-3 -52 -8 -143 -11 -204 -3 -60 -8 -144 -10 -185 -3 -70 -11 -242 -20
-470 -12 -287 -15 -686 -5 -715 11 -34 36 -51 84 -59 23 -4 36 2 62 28 l34 34
1 188 c1 248 10 576 24 839 2 44 7 127 9 185 3 58 9 161 12 230 4 69 7 145 8
170 1 25 5 50 9 56 4 8 138 10 434 9 430 -2 1158 -17 1194 -24 3 -1 6 -22 6
-49 5 -339 14 -767 18 -842 16 -332 26 -484 42 -630 13 -121 8 -230 -12 -313
-18 -69 16 -123 84 -133 36 -6 88 36 96 79 3 15 7 37 10 50 20 101 24 177 12
287 -4 30 -9 84 -11 120 -3 36 -8 92 -10 125 -3 33 -8 112 -11 175 -4 63 -8
138 -10 165 -3 28 -7 194 -10 370 -3 176 -8 382 -10 458 l-4 137 27 1 c138 3
367 -9 502 -26 220 -28 358 -55 575 -110 214 -55 531 -125 567 -125 71 0 116
50 103 116 -7 40 -52 74 -98 74 -33 0 -239 45 -482 106 -166 41 -273 66 -342
79 -16 3 -38 7 -50 9 -11 3 -43 8 -70 12 -26 3 -55 8 -63 9 -14 3 -43 6 -165
21 -96 11 -293 22 -427 23 -84 1 -88 2 -87 24 1 12 -1 74 -5 137 -3 63 -8 160
-11 215 -3 55 -7 141 -10 190 -11 209 -18 552 -16 833 l1 142 83 -5 c45 -3
109 -7 142 -10 63 -5 132 -10 280 -20 50 -3 115 -8 145 -10 30 -3 84 -7 120
-10 36 -3 81 -8 100 -10 34 -5 74 -8 230 -20 41 -4 95 -8 120 -10 111 -11 252
-19 327 -20 76 0 85 2 108 26 45 45 32 126 -25 149 -14 6 -44 10 -66 9 -21 -1
-68 1 -104 4 -36 4 -96 9 -135 12 -113 8 -227 17 -265 20 -19 2 -64 6 -100 10
-36 3 -81 8 -100 10 -19 2 -73 7 -120 10 -47 4 -96 8 -110 10 -14 2 -81 7
-150 11 -151 8 -175 10 -315 20 -60 4 -121 7 -134 8 l-23 0 6 191 c27 800 36
940 72 1160 8 50 17 101 19 115 6 34 14 81 19 106 30 147 25 285 -11 312 -9 6
-40 12 -68 12 -45 0 -53 -3 -67 -27 -9 -17 -18 -64 -22 -118 -3 -49 -8 -100
-10 -113 -3 -13 -15 -78 -26 -145 -57 -333 -60 -364 -86 -1087 -3 -102 -8
-219 -9 -260 -2 -41 -4 -87 -4 -102 -1 -23 -5 -26 -28 -23 -16 2 -59 6 -98 9
-38 3 -104 8 -145 11 -41 3 -104 8 -140 10 -66 5 -560 14 -925 18 l-200 3 1
89 c0 50 4 176 9 280 4 105 8 348 10 540 1 206 6 387 14 440 11 84 14 112 26
205 3 32 16 199 19 260 4 80 -81 137 -142 94z m548 -2100 c0 -1 -7 -17 -15
-37 -8 -19 -12 -37 -9 -39 2 -3 -2 -21 -10 -40 -9 -20 -13 -38 -10 -41 12 -12
4 -96 -15 -150 -20 -58 -48 -180 -57 -247 -2 -19 -9 -60 -14 -90 -5 -30 -12
-80 -15 -110 -3 -30 -7 -75 -10 -100 -2 -25 -7 -74 -11 -110 -3 -36 -8 -74
-10 -84 -2 -11 -6 -58 -10 -105 -6 -78 -4 -88 15 -113 28 -35 71 -44 115 -23
43 21 49 36 61 160 5 56 15 154 20 200 1 11 3 25 4 31 1 8 14 9 44 4 23 -5 78
-11 122 -14 159 -12 210 -18 218 -25 23 -22 90 -152 100 -194 22 -98 97 -129
159 -67 28 28 30 35 26 84 -2 29 -18 81 -35 117 l-30 65 23 28 c35 40 32 89
-6 128 -24 24 -37 29 -66 26 -25 -2 -39 2 -44 12 -5 8 -40 82 -80 163 -66 138
-174 329 -277 490 -24 37 -41 72 -39 76 3 4 20 6 38 5 18 -1 128 -5 243 -9
201 -6 252 -8 375 -19 104 -10 215 -19 228 -19 6 0 12 -5 12 -11 0 -181 10
-856 14 -921 9 -137 21 -389 29 -580 l2 -40 -160 1 c-88 1 -293 5 -455 9 -162
4 -456 8 -652 8 -197 0 -356 3 -354 6 8 12 18 390 22 796 2 231 6 458 8 505 2
47 5 126 6 175 1 50 4 93 6 97 3 5 494 7 494 2z m155 -394 c42 -67 175 -320
175 -333 0 -13 -264 13 -277 27 -11 11 60 346 73 346 2 0 15 -18 29 -40z"/>
<path d="M1807 6204 c-1 -1 -45 -4 -97 -8 -52 -3 -115 -8 -140 -12 -39 -5
-297 -51 -325 -58 -34 -9 -106 -31 -199 -61 -58 -20 -132 -38 -163 -40 -76 -7
-88 -11 -108 -41 -20 -31 -22 -72 -6 -103 15 -27 65 -50 100 -45 14 1 44 5 66
8 22 3 78 17 125 32 117 36 252 74 268 74 12 0 11 -76 -3 -170 -7 -51 -15
-127 -20 -210 -4 -47 -8 -107 -10 -135 -2 -27 -7 -102 -10 -165 -4 -63 -8
-135 -10 -160 -3 -44 -7 -195 -6 -236 1 -12 13 -33 27 -48 37 -36 91 -36 128
0 29 30 28 27 31 104 6 139 17 349 20 390 2 25 6 90 9 145 4 55 9 118 11 140
3 22 9 85 15 140 17 163 21 187 29 204 5 9 6 21 4 28 -6 17 85 30 275 38 148
7 180 22 187 90 2 24 -19 67 -41 82 -19 12 -146 26 -157 17z"/>
<path d="M3429 6098 c-7 -13 -16 -68 -20 -123 -4 -55 -17 -149 -28 -210 -38
-202 -54 -353 -67 -655 -2 -63 -7 -131 -9 -150 -14 -113 -15 -196 -3 -211 37
-45 106 -52 143 -14 14 13 25 30 26 37 0 7 2 22 4 33 2 11 7 49 10 85 4 36 8
78 11 93 2 15 6 94 9 175 6 208 19 338 51 527 9 50 18 104 21 120 3 17 8 48
12 70 13 68 5 192 -13 220 -15 22 -24 25 -76 25 -51 0 -61 -3 -71 -22z"/>
<path d="M5458 6024 c-2 -1 -16 -4 -33 -7 -146 -26 -279 -124 -349 -256 -122
-233 -183 -513 -152 -703 32 -199 198 -379 386 -417 30 -6 109 -13 175 -16 66
-2 141 -7 166 -11 42 -5 48 -3 72 26 16 18 27 44 27 60 0 38 -42 87 -83 96
-17 4 -39 9 -47 11 -8 2 -68 6 -132 8 -141 5 -157 8 -214 35 -176 86 -219 341
-109 645 89 247 167 330 322 343 53 4 72 1 122 -22 67 -30 96 -28 131 9 82 87
-30 191 -215 199 -35 2 -66 2 -67 0z"/>
<path d="M1829 4156 c-2 -2 -35 -7 -74 -11 -128 -12 -149 -14 -232 -30 -121
-23 -317 -78 -423 -120 -127 -50 -283 -131 -315 -165 -46 -48 -29 -128 33
-151 35 -13 57 -7 133 39 61 37 210 105 267 122 15 4 34 11 43 15 19 7 24 -7
36 -110 15 -127 10 -364 -12 -635 -3 -36 -7 -107 -9 -159 -3 -86 -1 -95 21
-121 13 -16 37 -31 53 -35 33 -7 84 15 99 43 5 10 13 79 16 153 4 74 8 154 10
179 15 211 19 279 19 375 0 101 -6 183 -20 275 -12 86 -12 89 4 94 15 4 67 15
152 31 14 3 67 7 118 11 135 8 176 27 188 89 8 44 -17 90 -57 104 -35 12 -43
13 -50 7z"/>
<path d="M5428 3836 c-112 -39 -220 -127 -294 -236 -137 -203 -112 -372 87
-583 91 -97 175 -135 309 -141 114 -5 266 47 293 101 19 37 13 81 -15 109 -34
34 -68 36 -129 6 -69 -33 -194 -37 -248 -8 -58 31 -158 146 -188 217 -41 94
70 275 210 343 73 36 127 37 167 2 61 -51 144 -21 156 55 5 30 1 41 -25 72
-76 86 -193 109 -323 63z"/>
<path d="M1770 2306 c-69 -25 -491 -235 -675 -336 -60 -34 -146 -78 -190 -99
-45 -22 -86 -45 -92 -53 -32 -37 -17 -115 26 -138 50 -26 83 -14 320 114 58
31 106 56 107 56 2 0 3 -84 3 -187 0 -171 5 -284 16 -338 2 -11 4 -61 4 -112
1 -80 4 -95 24 -118 25 -29 92 -41 118 -22 41 31 48 58 44 177 -2 63 -7 126
-10 140 -8 32 -12 380 -5 484 l5 79 175 88 c96 48 189 90 205 94 86 19 101 26
118 54 25 43 21 78 -12 112 -37 37 -89 38 -181 5z"/>
<path d="M3602 2120 c-99 -36 -177 -119 -225 -240 -94 -242 -58 -462 102 -619
101 -99 226 -155 335 -150 149 7 248 106 301 304 37 134 41 267 12 322 -39 74
-157 170 -267 217 -25 11 -46 21 -48 21 -1 1 4 14 12 29 8 15 13 35 11 44 -2
9 -4 22 -4 28 -1 6 -13 23 -27 38 -23 22 -35 26 -88 26 -34 -1 -84 -9 -114
-20z m-13 -279 c10 -6 40 -12 67 -15 59 -7 215 -82 262 -127 35 -33 54 -70 47
-91 -2 -7 -7 -30 -10 -51 -16 -111 -57 -213 -97 -241 -80 -56 -253 39 -316
174 -36 75 -37 184 -3 288 13 39 26 72 28 72 2 0 12 -4 22 -9z"/>
<path d="M4860 1990 c-27 -27 -40 -62 -33 -88 2 -11 -3 -31 -12 -45 -25 -39
-28 -343 -5 -468 10 -52 20 -113 24 -137 14 -105 40 -166 89 -213 39 -38 67
-53 138 -73 81 -24 134 -28 349 -27 173 1 198 3 220 19 54 41 55 121 2 163
-22 17 -35 20 -67 14 -81 -13 -363 -14 -419 -1 -98 23 -115 45 -131 166 -3 25
-8 58 -11 73 -5 25 -3 28 12 23 58 -17 178 -27 394 -32 85 -2 172 -4 193 -5
91 -3 114 116 34 175 -27 20 -42 21 -235 22 -260 1 -359 13 -405 48 -15 12
-17 26 -14 102 3 69 7 89 18 87 8 -1 43 -6 79 -12 123 -21 226 -28 448 -30
l222 -2 30 30 c52 51 35 129 -33 149 -17 6 -111 10 -207 10 -260 -2 -417 14
-555 56 -68 21 -101 20 -125 -4z"/>
</g>
</svg>
